<?xml version="1.0" standalone="no"?>
<!DOCTYPE svg PUBLIC "-//W3C//DTD SVG 1.1//EN" "http://www.w3.org/Graphics/SVG/1.1/DTD/svg11.dtd" >
<svg xmlns="http://www.w3.org/2000/svg" xmlns:xlink="http://www.w3.org/1999/xlink" version="1.1">
<metadata>
Created by FontForge 20161003 at Mon Dec  4 16:01:00 2017
 By www-data
(c) 2000-2012 Typodermic Fonts Inc. See attached license agreement. If agreement is missing visit typodermicfonts.com for more info.
</metadata>
<defs>
<font id="Berylium-Regular" horiz-adv-x="569" >
  <font-face 
    font-family="Berylium"
    font-weight="400"
    font-stretch="normal"
    units-per-em="1000"
    panose-1="2 4 6 2 6 5 1 1 1 3"
    ascent="749"
    descent="-251"
    x-height="416"
    cap-height="651"
    bbox="-296 -270 1031 926"
    underline-thickness="50"
    underline-position="-100"
    unicode-range="U+0017-FB04"
  />
<missing-glyph horiz-adv-x="676" 
d="M185 -246q-75 0 -115 32t-40 97v747q0 65 40 97.5t115 32.5h310q77 0 117 -32.5t40 -97.5v-747q0 -65 -40 -97t-117 -32h-310zM224 1l-94 -62l55 -98l94 71zM110 544l39 -34l107 57l119 -7l69 -99l-18 -139l-33 -31l-207 -116l-36 -82l57 -91l80 47l-44 44v52l28 27
l242 115l52 70l21 166l-88 115l-151 41l-130 -44z" />
    <glyph glyph-name="copyright" unicode="&#x28;C&#x29;" horiz-adv-x="863" 
d="M113 418l93 147l113 85l176 10l145 -73l100 -155l15 -155l-41 -133l-115 -118l-134 -41l-121 9l-101 49l-75 88l-53 67zM146 400v-185l68 -102l125 -90l165 -10l131 83l84 106l6 139l-51 147l-85 110l-136 35l-112 -7l-89 -61l-52 -58zM574 444l12 -55l-21 -7l-41 96
l-51 27l-93 -8l-64 -88l-5 -121l44 -92l71 -51l75 12l68 87l11 33l16 -20l-31 -106l-88 -35l-130 15l-94 101l-10 164l85 107l122 35l122 -33z" />
    <glyph glyph-name="registered" unicode="&#x28;R&#x29;" horiz-adv-x="709" 
d="M272 488l109 6l90 -15l33 -78l-30 -62l-104 -22l42 -13l38 -34l31 -116l29 5l11 48l17 -2l-7 -68l-57 -14l-58 29l-7 100l-44 48l-72 8l17 -18l-3 -119l55 -24l-6 -21l-71 14l-79 -14l-4 22l28 4l23 28v254l-22 28l-34 -1l2 30zM384 326l47 35l12 49l-38 52l-79 11
l-24 -27l4 -117zM61 400l87 135l104 79l162 10l135 -67l93 -145l14 -143l-39 -124l-105 -109l-124 -38l-113 9l-92 44l-72 82l-49 62zM92 382v-171l62 -95l116 -83l153 -8l123 75l76 100l7 128l-47 136l-79 101l-127 33l-104 -5l-83 -58l-47 -53z" />
    <glyph glyph-name="ff" unicode="ff" horiz-adv-x="494" 
d="M278 15l32 10l28 45l-7 282l18 10l-94 7l-103 -4l7 -281l9 -48l55 -18l-2 -21l-93 12l-101 -9l4 15l32 10l28 45l-7 282l18 10l-93 3v24l73 40l14 136l68 114l88 30l35 -3l50 -40l-55 -49l-56 59l-46 -13l-32 -92v-178l10 14l111 -7l60 29l13 127l68 104l88 30l36 -3
l49 -40l-54 -49l-56 59l-47 -13l-31 -82v-169l10 14l71 2l2 -42l-79 -2l7 -281l9 -48l55 -18l-2 -21l-94 12l-100 -9z" />
    <glyph glyph-name="fi" unicode="fi" horiz-adv-x="451" 
d="M31 15l32 10l28 45l-7 282l18 10l-93 3v24l73 40l14 127l68 113l88 31l72 -19l69 -82l-66 -61l-48 80l-53 49l-46 -14l-32 -91v-169l10 14l141 2l74 28l17 -11l-16 -361l33 -39l26 -16l-3 -18l-85 13l-99 -5l5 24l38 4l25 48l-9 252l-50 43l-103 -6l7 -281l9 -48l55 -18
l-2 -21l-93 12l-101 -9z" />
    <glyph glyph-name="fl" unicode="fl" horiz-adv-x="457" 
d="M31 15l32 10l28 45l-7 282l18 10l-93 3v24l73 40l14 127l68 113l88 31l62 -6l35 -22l35 31l21 -10l-19 -436l5 -193l27 -40l32 -6v-23l-92 13l-93 -8l-1 24l35 2l23 53v531l-26 39l-70 18l-46 -14l-32 -91v-169l10 14l71 2l2 -42l-79 -2l7 -281l9 -48l55 -18l-2 -21
l-93 12l-101 -9z" />
    <glyph glyph-name="ffi" unicode="ffi" horiz-adv-x="698" 
d="M278 15l32 10l28 45l-7 282l18 10l-94 7l-103 -4l7 -281l9 -48l55 -18l-2 -21l-93 12l-101 -9l4 15l32 10l28 45l-7 282l18 10l-93 3v24l73 40l14 136l68 114l88 30l35 -3l50 -40l-55 -49l-56 59l-46 -13l-32 -92v-178l10 14l111 -7l60 29l13 127l68 113l88 31l73 -19
l69 -82l-66 -61l-48 80l-53 49l-47 -14l-31 -91v-169l10 14l141 2l73 28l17 -11l-15 -361l32 -39l27 -16l-3 -18l-85 13l-99 -5l4 24l39 4l25 48l-9 252l-50 43l-103 -6l7 -281l9 -48l55 -18l-2 -21l-94 12l-100 -9z" />
    <glyph glyph-name="ffl" unicode="ffl" horiz-adv-x="704" 
d="M278 15l32 10l28 45l-7 282l18 10l-94 7l-103 -4l7 -281l9 -48l55 -18l-2 -21l-93 12l-101 -9l4 15l32 10l28 45l-7 282l18 10l-93 3v24l73 40l14 136l68 114l88 30l35 -3l50 -40l-55 -49l-56 59l-46 -13l-32 -92v-178l10 14l111 -7l60 29l13 127l68 113l88 31l63 -6
l35 -22l35 31l21 -10l-19 -436l4 -193l28 -40l32 -6v-23l-92 13l-93 -8l-1 24l35 2l23 53v531l-26 39l-70 18l-47 -14l-31 -91v-169l10 14l71 2l2 -42l-79 -2l7 -281l9 -48l55 -18l-2 -21l-94 12l-100 -9z" />
    <glyph glyph-name=".notdef" horiz-adv-x="676" 
d="M185 -246q-75 0 -115 32t-40 97v747q0 65 40 97.5t115 32.5h310q77 0 117 -32.5t40 -97.5v-747q0 -65 -40 -97t-117 -32h-310zM224 1l-94 -62l55 -98l94 71zM110 544l39 -34l107 57l119 -7l69 -99l-18 -139l-33 -31l-207 -116l-36 -82l57 -91l80 47l-44 44v52l28 27
l242 115l52 70l21 166l-88 115l-151 41l-130 -44z" />
    <glyph glyph-name="uni0017" horiz-adv-x="292" 
 />
    <glyph glyph-name="space" unicode=" " horiz-adv-x="292" 
 />
    <glyph glyph-name="exclam" unicode="!" horiz-adv-x="171" 
d="M77 391l-21 212l44 54l50 -51l-23 -210l-16 -219h-27zM136 43l-54 -61l-54 64l54 54z" />
    <glyph glyph-name="quotedbl" unicode="&#x22;" horiz-adv-x="286" 
d="M192 524l-27 98l52 64l39 -75l-22 -90l-19 -139l-20 3zM54 527l-27 85l50 57l39 -50l-18 -97l-13 -137h-24z" />
    <glyph glyph-name="numbersign" unicode="#" horiz-adv-x="575" 
d="M313 642h23l-80 -187h64l63 6l36 104l22 88l15 -16l33 8l-40 -82l-39 -107l73 5l61 10l-4 -58l-57 10l-80 -2l-48 -137l133 6l-3 -54l-47 18l-96 -11l-47 -148l-15 -72l-20 12l-25 8l82 204l-122 -6l-37 -114l-23 -101l-43 28l82 199l-130 -8l6 43l63 -6l75 8l38 136
l-69 -3l-65 -7l8 50l73 -8l63 3l57 196zM204 286l124 -4l34 112l24 30l-128 3z" />
    <glyph glyph-name="dollar" unicode="$" horiz-adv-x="476" 
d="M268 704l-8 -62h73l76 -37l-14 -132l-20 -4l-7 73l-54 69l-48 10v-248l107 -70l55 -116l-10 -80l-62 -76l-96 -39l3 -74l-30 -3l5 85h-74l-105 39l-19 169l16 -1l22 -59l60 -100l76 -22h22v266l-14 -5l-91 64l-59 123l32 101l73 56l61 13v61zM198 606l-50 -43l-2 -85
l40 -65l57 -39v245zM260 26l49 10l38 45l9 56l-28 93l-68 44v-248z" />
    <glyph glyph-name="percent" unicode="%" horiz-adv-x="767" 
d="M275 627l64 -116l-2 -122l-45 -81l-56 -41l2 7l-88 6l-89 77l-24 103l26 123l70 56l60 12zM633 357l78 -90l8 -126l-31 -108l-74 -41l-106 18l-70 105v137l40 98l83 18zM504 261l-7 -121l24 -94l44 -34l61 24l31 113l-14 126l-22 64l-71 -8zM600 626l-205 -315l-190 -355
l-52 42l210 318l192 349zM169 622l-33 -55v-129l23 -125l39 -19l53 43l9 120l-9 131l-51 40z" />
    <glyph glyph-name="ampersand" unicode="&#x26;" horiz-adv-x="718" 
d="M511 319l8 55l-32 26l-6 23l84 -16l125 6l-3 -18l-61 -13l-92 -81l-81 -132l18 8l79 -101l80 -39l73 2l-1 -36l-110 -15l-97 10l-77 128l-55 -72l-93 -60l-81 -4l-87 34l-60 114l9 114l73 82l83 62l-35 -7l-56 62l-16 81l30 69l79 54h108l64 -54l20 -83l-41 -69l-66 -40
l-11 -13l165 -191zM159 341l-45 -64l-5 -101l61 -87l83 -41l96 29l56 59l-201 236zM306 434l35 79l-22 83l-73 35l-56 -19l-25 -47l21 -75l76 -77z" />
    <glyph glyph-name="quotesingle" unicode="'" horiz-adv-x="147" 
d="M53 529l-25 104l48 35l39 -35l-22 -108l-8 -133l-23 -5z" />
    <glyph glyph-name="parenleft" unicode="(" horiz-adv-x="340" 
d="M280 636l-82 -132l-58 -193v-182l33 -168l114 -174l-12 -25l-89 110l-73 171l-35 136l13 155l70 184l101 141z" />
    <glyph glyph-name="parenright" unicode=")" horiz-adv-x="340" 
d="M74 655l119 -181l64 -196v-185l-65 -170l-120 -159l-13 21l71 100l51 139l18 187l-9 166l-46 126l-53 75l-35 61z" />
    <glyph glyph-name="asterisk" unicode="*" horiz-adv-x="478" 
d="M278 636l65 27l10 -65l-82 -104l130 21l36 -43l-46 -41l-123 29l82 -95l-12 -63l-62 18l-38 131l-33 -121l-55 -40l-26 61l80 107l-111 -23l-54 37l48 35l115 -11l-86 94l22 63l49 -13l49 -128z" />
    <glyph glyph-name="plus" unicode="+" horiz-adv-x="400" 
d="M237 478l-11 -170l142 -8l-9 -53l-131 -5l16 -165l-65 6l5 156l-145 -4l3 79l144 -13v173z" />
    <glyph glyph-name="comma" unicode="," horiz-adv-x="238" 
d="M37 44l60 67l67 -49l33 -101l-20 -67l-52 -51l-75 -28l1 26l62 26l40 65l-21 56l-19 27l-33 -12z" />
    <glyph glyph-name="hyphen" unicode="-" horiz-adv-x="291" 
d="M50 270l103 -20l98 13l-4 -78l-81 17h-119z" />
    <glyph glyph-name="period" unicode="." horiz-adv-x="204" 
d="M148 46l-52 -64l-54 52l54 72z" />
    <glyph glyph-name="slash" unicode="/" horiz-adv-x="291" 
d="M130 208l117 447l53 -19l-156 -446l-100 -367l-55 11z" />
    <glyph glyph-name="zero" unicode="0" horiz-adv-x="476" 
d="M282 651l93 -61l53 -141l14 -163l-35 -176l-81 -104l-99 -21l-100 46l-81 140l-12 172l19 153l71 110l75 41zM187 614l-40 -51l-25 -185l-5 -155l30 -133l57 -77l59 -3l57 55l29 148v185l-26 155l-51 64l-57 5z" />
    <glyph glyph-name="one" unicode="1" horiz-adv-x="353" 
d="M25 650l97 -19l95 11l-12 -542l52 -69l67 -13l-2 -24l-145 12l-136 -11l-13 29l73 4l32 65v472l-53 52h-57z" />
    <glyph glyph-name="two" unicode="2" horiz-adv-x="465" 
d="M99 591l87 56h108l88 -67l18 -128l-47 -124l-120 -149l-140 -125l45 22h184l66 44l32 63l19 -12l-36 -78l-28 -96l-169 9l-203 -18l246 264l68 141l-14 119l-69 68l-102 -20l-69 -64l-21 9z" />
    <glyph glyph-name="three" unicode="3" horiz-adv-x="426" 
d="M110 617l94 42l103 -14l64 -78l-6 -91l-62 -73l-81 -47l75 -10l61 -51l38 -63l-8 -112l-49 -69l-79 -51l-115 -8l-88 76l-31 43l48 56l55 -51l-26 -38l80 -63l90 18l48 83l-12 91l-79 81l-66 21l-63 -6l105 66l64 52l27 90l-67 85l-94 -13l-75 -72l-17 14z" />
    <glyph glyph-name="four" unicode="4" horiz-adv-x="476" 
d="M337 640v-370l-20 -11l128 8l12 -73h-106l-18 -12v-93l51 -66l34 -2l5 -24l-130 5l-113 -10v29l42 20l40 44v113h-277l329 459zM74 261l186 6v244l17 42z" />
    <glyph glyph-name="five" unicode="5" horiz-adv-x="434" 
d="M316 639l36 29l12 31l16 -11l-32 -135l-241 12l10 -8l-22 -167l98 31l132 -45l76 -104l-5 -124l-71 -118l-121 -45l-114 23l-56 68l-6 30l60 56l52 -62l-23 -24l53 -55l60 -6l75 62l20 97l-28 121l-87 57l-89 -14l-52 -39l-21 10l32 171l8 159h228z" />
    <glyph glyph-name="six" unicode="6" horiz-adv-x="478" 
d="M394 650l-107 -78l-127 -159l-24 -43l90 43l120 -18l76 -82l25 -141l-32 -116l-120 -62h-113l-98 56l-53 132l6 135l80 162l134 120l140 69zM121 331l-17 -111l14 -107l59 -87l83 -14l56 18l39 48l15 102l-21 95l-68 86l-98 11l-66 -33z" />
    <glyph glyph-name="seven" unicode="7" horiz-adv-x="443" 
d="M263 635l201 17l-204 -352l-145 -305l-77 -4l347 590l-33 -14h-226l-71 -45l-17 -48l-23 4l39 167z" />
    <glyph glyph-name="eight" unicode="8" horiz-adv-x="435" 
d="M75 393l-41 95l26 103l95 54l105 12l96 -41l35 -87l-17 -86l-47 -51l-58 -37l76 -67l60 -100l-7 -95l-62 -78l-99 -28l-94 4l-81 46l-44 78l15 106l64 67l66 40zM141 288l-37 -92l-8 -93l23 -60l64 -31l75 -2l66 54l9 93l-39 74l-48 50l-54 30v12zM272 380l29 85l10 84
l-37 60l-53 28l-75 -18l-39 -42l-2 -73l41 -80l89 -59l-5 -19z" />
    <glyph glyph-name="nine" unicode="9" horiz-adv-x="472" 
d="M189 73l108 106l44 109l-47 -28l-116 -19l-83 33l-53 72l-19 118l53 113l86 67l123 16l100 -61l58 -124l-7 -170l-80 -151l-151 -123l-127 -54l-13 15zM352 337l6 128l-12 88l-37 55l-62 27l-70 -11l-53 -55l-19 -81l9 -96l36 -70l73 -44l80 10l54 41z" />
    <glyph glyph-name="colon" unicode=":" horiz-adv-x="203" 
d="M161 357l-62 -63l-60 62l65 70zM158 53l-59 -76l-60 69l56 61z" />
    <glyph glyph-name="semicolon" unicode=";" horiz-adv-x="227" 
d="M140 90l53 -73l2 -89l-50 -75l-64 -53l-16 15l40 30l36 51l11 78l-44 39l-29 -18l-45 56l63 53zM183 352l-70 -66l-64 63l68 76z" />
    <glyph glyph-name="less" unicode="&#x3c;" horiz-adv-x="460" 
d="M390 451l-291 -177l290 -182l-6 -64l-279 203l-35 18l2 65l194 112l125 99v-74z" />
    <glyph glyph-name="equal" unicode="=" horiz-adv-x="575" 
d="M292 382l194 5l3 -64l-196 16l-207 -17v73zM306 203l173 15l11 -61l-182 9l-225 -6l5 58z" />
    <glyph glyph-name="greater" unicode="&#x3e;" horiz-adv-x="460" 
d="M239 393l147 -96l7 -50l-138 -84l-186 -129l7 63l187 123l94 54l-54 30l-233 144v70z" />
    <glyph glyph-name="question" unicode="?" horiz-adv-x="413" 
d="M67 591l87 56h121l87 -67l18 -128l-24 -61l-164 -138l-20 -32l13 -47l37 -22l-39 -39l-53 51l11 64l135 131l20 34l-13 119l-82 68l-101 -20l-69 -64l-22 9zM247 45l-47 -60l-51 51l49 54z" />
    <glyph glyph-name="at" unicode="@" horiz-adv-x="863" 
d="M500 322l-2 56l-23 42l-57 22l-54 -49l24 -34l-48 -38l-46 40l119 109l93 5l59 -88l-9 -250l23 -31l33 4l130 113l19 193l-104 149l-206 64l-231 -102l-96 -226l20 -239l126 -126l172 -47l152 24l117 82l17 -12l-132 -87l-143 -34l-210 53l-130 128l-44 255l114 263
l260 93l222 -71l114 -157l-5 -210l-167 -165l-50 2l-49 50l-51 -44l-76 -18l-88 43l-6 122l66 54l170 56zM350 222l-2 -92l50 -41l53 -5l49 39l-4 162z" />
    <glyph glyph-name="A" unicode="A" horiz-adv-x="618" 
d="M9 23l41 5l38 53l215 602l33 12l114 -376l95 -243l50 -50l36 -5l-8 -23l-117 5l-95 -6l-10 29l31 -3l29 49l-64 180l12 18h-231l7 -16l-52 -164l14 -64l65 -9l5 -20l-108 11l-100 -11v26zM391 298l-95 248l3 53l-104 -294z" />
    <glyph glyph-name="B" unicode="B" horiz-adv-x="571" 
d="M148 639l82 8l172 -25l79 -90l-4 -98l-63 -69l-94 -24l57 -7l64 -25l63 -67l21 -76l-34 -93l-117 -75l-330 -7l9 33l44 9l31 60v468l-33 51l-44 9l-3 23zM204 308l5 -233l48 -58l65 -2l77 31l38 58l2 90l-55 81l-97 44h-94zM214 612v-271l72 2l72 30l51 53l-4 92l-59 76
l-86 35l-73 -5z" />
    <glyph glyph-name="C" unicode="C" horiz-adv-x="618" 
d="M583 531l9 -88l-27 3l-17 76l-35 74l-109 35l-144 -33l-98 -115l-32 -161l20 -148l99 -113l131 -51l97 16l89 94l28 83l20 -5l-49 -175l-100 -32l-132 -8l-161 56l-110 102l-37 164l31 157l88 125l143 60l181 7l109 -54z" />
    <glyph glyph-name="D" unicode="D" horiz-adv-x="715" 
d="M150 636l92 15h101l149 -45l136 -109l49 -147l-22 -167l-113 -119l-130 -58l-133 -12l-110 9l-126 -12l-4 24l56 19l36 66v446l-36 70h-47l-1 24zM205 605v-461l17 -68l80 -59l124 17l90 72l49 109v155l-51 135l-115 80l-127 37l-89 -3z" />
    <glyph glyph-name="E" unicode="E" 
d="M496 642l-17 -69l6 -77l-18 -2l-19 87l-74 36l-201 -8l34 -4v-259l142 5l56 38l14 55l23 -7l-15 -108l10 -100l-26 -2l-12 51l-61 33h-151l18 -21v-190l55 -67l79 -12l97 16l68 74l14 91l24 -9l-12 -93l-33 -100h-317l-149 -9l6 24l62 22l26 69v452l-37 61h-45l1 23h452z
" />
    <glyph glyph-name="F" unicode="F" horiz-adv-x="505" 
d="M235 642l257 6l-18 -70v-85l-23 -7l-3 78l-68 54h-191l21 -24v-255l133 -5l60 31l23 67l14 -11l-18 -110l9 -111h-22l-7 57l-47 38l-172 9l23 -23v-163l41 -79l57 -13v-32l-126 12l-135 -11l-1 15l46 14l40 51v490l-41 51l-44 1l-1 25h193z" />
    <glyph glyph-name="G" unicode="G" horiz-adv-x="667" 
d="M545 558l-98 69h-130l-112 -58l-55 -108l-14 -150l17 -115l82 -106l118 -62l120 -13l40 31v112l-25 59l-60 15l9 30l101 -13l109 13l1 -20l-58 -36l5 -113l34 -47l-84 -39l-94 -15h-161l-140 61l-100 124l-18 205l75 149l144 105l187 18l173 -36l-17 -76l5 -93l-19 3z
" />
    <glyph glyph-name="H" unicode="H" horiz-adv-x="765" 
d="M155 637l139 13l10 -29l-47 -2l-45 -72l-8 -192h388l-35 18l-8 191l-30 52l-62 10l14 19l121 -16l132 16v-23l-39 -1l-43 -72l-9 -446l34 -61l55 -27l2 -17l-124 11l-136 -14l3 26l52 5l38 73v218h-374l24 -14l5 -143l12 -112l66 -38l12 -10l-270 -6l3 24l60 16l30 58
v443l-34 71l-47 8l-1 30z" />
    <glyph glyph-name="I" unicode="I" horiz-adv-x="333" 
d="M37 651l133 -27l133 21l6 -21l-58 -16l-44 -67v-456l33 -54l60 -16v-24l-142 22l-121 -16v26l73 23l11 44v487l-60 40l-32 4z" />
    <glyph glyph-name="J" unicode="J" horiz-adv-x="333" 
d="M42 650l128 -15l130 10l7 -29h-39l-51 -58v-486l-39 -134l-134 -93l-73 -11l-6 30l85 18l66 100l20 96l-9 469l-36 62l-47 13z" />
    <glyph glyph-name="K" unicode="K" horiz-adv-x="668" 
d="M159 633l118 18l6 -27l-47 -12l-27 -43l5 -212l-25 -41l130 102l124 163l-17 40l-27 5l-4 16l101 -5l90 8l18 -21l-38 -6l-92 -53l-204 -229l37 12l189 -232l108 -88l55 -15l-2 -21l-102 5l-84 44l-98 106l-159 161l-4 -149l26 -108l70 -30v-27l-129 14l-135 -11l2 18
l52 11l35 58v446l-29 75l-51 16l-1 21z" />
    <glyph glyph-name="L" unicode="L" 
d="M159 633l164 12l-7 -27l-62 -4l-49 -47v-494l31 -37h198l63 48l37 90l31 -6l-54 -176l-212 13l-262 -10l-1 26l41 2l45 50v496l-44 47h-46l2 34z" />
    <glyph glyph-name="M" unicode="M" horiz-adv-x="811" 
d="M138 639l91 9l4 -27l-29 -16l160 -400l33 -90l32 111l154 364l-18 49l10 13l82 -16l95 10v-26l-30 -1l-51 -64l37 -468l35 -59l53 -7l2 -21l-147 6l-115 -12l-6 25l45 7l53 69l-32 454l-30 -82l-189 -488l-104 229l-103 234l-22 83l-29 -438l31 -48l56 -18l-2 -25
l-105 14l-114 -16l-6 30l47 4l45 59l53 445l-36 76l-47 15l3 29z" />
    <glyph glyph-name="N" unicode="N" horiz-adv-x="716" 
d="M63 644l75 7l407 -475l30 -46l-9 411l-35 73l-74 13l2 24l125 -12l106 9l6 -22l-57 -10l-39 -68v-504l12 -78l-440 499l-24 67v-428l49 -63l49 -17l1 -27l-120 6l-130 -16l-2 21l73 22l46 85v419l-55 78l-68 7l-3 20z" />
    <glyph glyph-name="O" unicode="O" horiz-adv-x="717" 
d="M97 553l157 92l184 6l156 -78l83 -162v-182l-71 -144l-141 -87l-142 -10l-143 45l-106 100l-47 189l8 65zM173 522l-42 -191l30 -155l95 -130l133 -25l133 64l55 131l5 171l-54 145l-67 76l-98 23l-95 -23z" />
    <glyph glyph-name="P" unicode="P" horiz-adv-x="523" 
d="M36 618v22l78 -5l139 10l129 -18l95 -74l11 -122l-68 -105l-124 -47h-99v-176l41 -67l59 -15l-2 -21l-130 10l-130 -15l-2 28l49 10l37 62v470l-50 53h-33zM198 300l77 -3l105 55l27 110l-39 103l-98 47l-102 10l30 -22v-300z" />
    <glyph glyph-name="Q" unicode="Q" horiz-adv-x="717" 
d="M97 553l157 92l184 6l156 -78l83 -162v-182l-71 -144l-141 -87l-142 -10l-143 45l-106 100l-47 189l8 65zM173 522l-42 -191l30 -155l95 -130l133 -25l133 64l55 131l5 171l-54 145l-67 76l-98 23l-95 -23zM420 -23l44 6l110 -42l63 4l47 49l20 -15l-95 -86l-57 -6
l-124 46l-84 -47l-21 27z" />
    <glyph glyph-name="R" unicode="R" horiz-adv-x="631" 
d="M150 639l113 9l105 -6l117 -81l4 -130l-53 -72l-78 -31l52 -18l55 -139l58 -126l99 -28l6 -26l-110 3l-91 54l-72 203l-49 46l-89 4l-3 -186l19 -61l79 -33l2 -23l-136 12l-138 -12l4 23l61 16l33 50v480l-40 45l-52 9l10 24zM217 614v-292l97 14l85 75v125l-79 83
l-81 12l-56 -10z" />
    <glyph glyph-name="S" unicode="S" horiz-adv-x="476" 
d="M121 596l96 61h111l90 -40l-9 -139h-17l-29 112l-76 41l-90 -14l-39 -103l37 -83l153 -106l86 -95l3 -117l-70 -87l-102 -41l-112 9l-94 42l-25 151l14 12l37 -99l85 -76l103 -3l78 69l-12 104l-232 188l-22 104z" />
    <glyph glyph-name="T" unicode="T" horiz-adv-x="571" 
d="M58 639h467l32 37l12 -183l-20 -8l-16 63l-76 58l-135 3v-489l27 -74l92 -29v-20l-154 12l-159 -11l2 15l89 31l24 69v481l22 15h-103l-101 -19l-45 -102l-22 12l23 169z" />
    <glyph glyph-name="U" unicode="U" horiz-adv-x="715" 
d="M162 634l124 11l-2 -26l-49 -5l-38 -68v-395l76 -98l131 -14l110 29l53 99v372l-33 67l-55 20l6 16l110 -5l92 5l-1 -21l-36 -10l-33 -62v-282l-25 -151l-90 -106l-144 -25l-149 30l-95 116v417l-36 63l-47 8l-4 20z" />
    <glyph glyph-name="V" unicode="V" horiz-adv-x="668" 
d="M134 635l126 5l3 -18l-48 -5l-20 -60l156 -426l2 -55l176 476l-23 64l-53 11v18l97 -8l107 7v-22l-40 -8l-60 -78l-210 -548l-8 -44l-215 577l-52 79l-46 18l1 24z" />
    <glyph glyph-name="W" unicode="W" horiz-adv-x="863" 
d="M113 633l116 12l2 -23l-42 -6l-31 -53l105 -389l3 -58l147 430l30 96l22 3l138 -486l-3 -39l137 443l-21 51l-49 12l2 16l92 -7l99 9l4 -23l-36 -7l-49 -53l-196 -591l-146 495l-6 60l-192 -561l-178 632l-51 23l1 25z" />
    <glyph glyph-name="X" unicode="X" horiz-adv-x="570" 
d="M144 635l107 8v-18l-32 -9l-12 -35l91 -180l4 -34l102 194l-13 56l-33 12l5 13l85 -9l102 12l5 -21l-51 -8l-61 -56l-118 -203l114 -221l60 -92l58 -21l2 -28l-112 13l-101 -14l-5 19l33 15l13 36l-102 193l-8 33l-105 -197l3 -54l42 -21v-16l-96 8l-106 -13l-3 18l38 15
l83 54l127 219l-138 269l-44 42l-50 8l-2 21z" />
    <glyph glyph-name="Y" unicode="Y" 
d="M130 629l103 15l2 -20l-31 -8l-14 -33l107 -247l-8 -33l21 23l118 241l-23 57l-37 2v16l92 -7l95 9v-20l-25 -3l-66 -56l-145 -271v-183l29 -68l59 -22v-21l-132 9l-110 -12l4 29l35 7l38 54v183l-154 326l-54 22l3 22z" />
    <glyph glyph-name="Z" unicode="Z" horiz-adv-x="621" 
d="M328 631l247 6l-388 -587l-23 -11l279 5l95 55l48 101h25l-44 -194h-431l-108 -12l408 591l25 15h-255l-84 -58l-32 -88l-12 8l18 174z" />
    <glyph glyph-name="bracketleft" unicode="[" horiz-adv-x="340" 
d="M275 614h-141l25 -16v-792h121l-5 -33h-185l19 450l-25 434l191 -12v-31z" />
    <glyph glyph-name="backslash" unicode="\" horiz-adv-x="287" 
d="M44 657l246 -844l-34 -12l-248 839z" />
    <glyph glyph-name="bracketright" unicode="]" horiz-adv-x="340" 
d="M249 644l-10 -36v-810l4 -25l-199 -5l6 32h162l-31 15v779l28 17h-165l4 33h201z" />
    <glyph glyph-name="asciicircum" unicode="^" horiz-adv-x="538" 
d="M294 657l228 -247l-33 -12l-221 182l21 38l-246 -227l-35 9l232 257h54z" />
    <glyph glyph-name="underscore" unicode="_" horiz-adv-x="432" 
d="M2 -155l206 -16l205 8l7 -80l-414 13z" />
    <glyph glyph-name="grave" unicode="`" horiz-adv-x="201" 
d="M90 687l92 -172l-26 -9l-127 141z" />
    <glyph glyph-name="a" unicode="a" horiz-adv-x="382" 
d="M249 276l-2 56l-23 42l-57 21l-54 -47l24 -34l-48 -40l-46 42l120 108l92 5l59 -88l-10 -249l43 -59l22 2l5 -20l-90 -20l-40 38l13 24l-52 -44l-75 -19l-87 45l-8 122l67 54l169 55zM98 176l-2 -92l51 -41l53 -4l49 38l-5 161z" />
    <glyph glyph-name="b" unicode="b" horiz-adv-x="475" 
d="M23 658l54 9l64 37l11 -15l-16 -118v-198l104 53l141 -16l67 -143l-14 -147l-78 -89l-126 -40l-185 40l27 25v543l-25 36h-20zM131 339v-201l35 -88l83 -32l90 35l43 106l-17 139l-75 76l-101 8l-75 -36z" />
    <glyph glyph-name="c" unicode="c" horiz-adv-x="368" 
d="M358 374l-47 -43l-73 62h-73l-58 -65l-12 -108l45 -116l84 -56l75 6l53 36l13 -9l-39 -50l-99 -37l-108 19l-87 95l-11 148l88 133l129 43l81 -12z" />
    <glyph glyph-name="d" unicode="d" horiz-adv-x="459" 
d="M277 671l67 3l65 31l4 -18l-6 -29v-590l25 -38l26 13l8 -27l-48 -7l-82 -24l8 49l2 58l-37 -49l-94 -53l-84 16l-87 76l-18 168l74 130l122 52l48 2l88 -24l-27 28l10 172l-62 41zM124 351l-29 -136l39 -122l92 -45l81 22l51 60l-17 -1v158l-41 97l-86 19z" />
    <glyph glyph-name="e" unicode="e" horiz-adv-x="383" 
d="M173 431l92 -7l71 -51l27 -121l-302 -31l36 -10l-4 -15l39 -88l95 -60l83 19l44 58l17 -22l-89 -90l-83 -21l-109 36l-73 131l25 150l73 95zM287 278l-17 94l-69 39l-57 -18l-36 -38l-12 -104z" />
    <glyph glyph-name="f" unicode="f" horiz-adv-x="247" 
d="M31 15l32 10l28 45l-7 282l18 10l-93 3v24l73 40l14 127l68 113l88 31l35 -3l50 -41l-55 -49l-56 60l-46 -14l-32 -91v-169l10 14l71 2l2 -42l-79 -2l7 -281l9 -48l55 -18l-2 -21l-93 12l-101 -9z" />
    <glyph glyph-name="g" unicode="g" horiz-adv-x="460" 
d="M148 135l-48 -53l31 -56l253 -33l48 -83l-52 -88l-125 -41h-141l-68 21l-15 112l27 -3l45 -76l94 -36l107 22l53 111l-8 34l-277 21l-43 61l53 65l43 34l-54 49l-29 94l46 106l89 42l105 -6l44 -28l125 16l-3 -52l-103 8l28 -54l-10 -96l-52 -72l-106 -28zM270 167l30 54
v101l-60 88l-47 11l-55 -28l-31 -92l15 -84l48 -60l44 -8z" />
    <glyph glyph-name="h" unicode="h" horiz-adv-x="474" 
d="M23 659l57 10l58 35l10 -15l-11 -317l134 65l103 -37l37 -89v-243l25 -50l16 -2l1 -16l-72 6l-95 -6l-4 18l32 5l30 39l-5 236l-55 82h-72l-96 -41l18 -5v-269l27 -37l30 -13l-3 -13l-84 8l-84 -7l3 14l36 16l12 45v523l-45 36z" />
    <glyph glyph-name="i" unicode="i" horiz-adv-x="226" 
d="M21 382l68 22l59 33l17 -11l-16 -361l33 -39l26 -16l-3 -18l-85 13l-99 -5l5 24l38 4l25 48l-9 252l-34 40l-18 -6zM116 681l51 -67l-60 -50l-46 55z" />
    <glyph glyph-name="j" unicode="j" horiz-adv-x="215" 
d="M23 380l64 18l52 37l23 -15l-12 -412l-28 -124l-76 -65l-72 -27l-10 24l73 35l45 97l-11 377l-27 30l-19 1zM56 624l60 54l48 -60l-51 -51z" />
    <glyph glyph-name="k" unicode="k" horiz-adv-x="417" 
d="M29 661l56 8l49 34l13 -10l-15 -359l5 -114l104 135l-4 32l-17 2l-4 24l81 -4l105 16v-22l-41 -5l-87 -47l-88 -109l26 4l151 -187l49 -44h18l-1 -12l-63 -13l-76 47l-131 189l-43 -44l23 8l3 -137l21 -29l33 -6v-18l-90 9l-82 -11l-4 19l37 15l17 45v518l-30 43l-11 2z
" />
    <glyph glyph-name="l" unicode="l" horiz-adv-x="210" 
d="M39 664l53 10l45 29l21 -10l-19 -436l5 -193l27 -40l32 -6v-23l-91 13l-94 -8l-1 24l35 2l24 53v531l-32 28z" />
    <glyph glyph-name="m" unicode="m" horiz-adv-x="724" 
d="M89 406l35 32l13 4l2 -57l-19 -44l53 50l87 35l90 -13l43 -59l58 50l86 28l82 -26l39 -86v-239l15 -48l30 -15l6 -20l-78 10l-106 -10v20l46 8l25 56l-8 210l-39 76h-106l-77 -52l32 6v-245l12 -41l33 -10v-23l-77 5l-95 -11l5 21l27 6l31 38l-6 252l-50 56l-101 -3
l-67 -54l25 6v-246l22 -42l36 -7l4 -30l-90 14l-86 -10l-6 17l30 9l31 37l-8 272l-40 31l-7 18z" />
    <glyph glyph-name="n" unicode="n" horiz-adv-x="468" 
d="M27 378l66 20l50 39l12 -11l-9 -70l58 45l112 33l78 -45l18 -89v-244l30 -35l12 -6l1 -18l-78 9l-84 -11l-3 23l32 8l24 39v236l-44 76l-72 5l-114 -53l28 2v-269l26 -38l35 -7l-3 -12h-95l-77 -3l-5 15l28 11l25 47v253l-32 39l-11 -5z" />
    <glyph glyph-name="o" unicode="o" horiz-adv-x="476" 
d="M343 411l75 -55l39 -114l-20 -129l-72 -89l-119 -30l-122 21l-87 80l-18 126l53 146l113 57h111zM116 319l-19 -160l49 -105l80 -39l80 11l50 84l24 142l-34 105l-69 44l-87 -3z" />
    <glyph glyph-name="p" unicode="p" horiz-adv-x="475" 
d="M29 392l56 16l48 29l12 -8l-8 -55l103 56l110 -13l79 -78l22 -136l-42 -119l-90 -69l-105 -21l-95 9l28 -13v-143l20 -46l57 -10v-23l-97 13l-104 -13l3 26l39 14l15 51l-12 482l-31 29zM143 329l-6 -164l18 -92l69 -47l93 15l48 63l16 122l-56 129l-99 32l-102 -46z" />
    <glyph glyph-name="q" unicode="q" horiz-adv-x="475" 
d="M407 377v-525l16 -51l35 -9v-20l-91 10l-97 -12v21l50 17l21 50l-4 183l-97 -47l-108 12l-93 97l-14 144l85 130l100 47h102l73 -40l24 53l19 -8zM341 78v212l-19 69l-87 42l-82 -23l-46 -97v-130l63 -92l92 -26l95 37z" />
    <glyph glyph-name="r" unicode="r" horiz-adv-x="306" 
d="M31 380l48 13l58 39l11 -11l-7 -78l-13 -55l76 113l57 28l48 -54l-53 -53l-36 40l-55 -40l-21 -76v-173l28 -42l51 -14l1 -15l-108 8l-87 -12l-1 19l34 11l22 49l-7 252l-31 32h-14z" />
    <glyph glyph-name="s" unicode="s" horiz-adv-x="321" 
d="M266 308l-17 3l-19 61l-55 37l-50 -13l-23 -53l22 -55l144 -109l18 -68l-37 -81l-83 -35l-92 10l-43 25l-5 106l17 -6l26 -73l61 -40l69 16l20 80l-42 56l-123 77l-17 85l40 69l73 30l42 -3l71 -27z" />
    <glyph glyph-name="t" unicode="t" horiz-adv-x="231" 
d="M146 413l68 -2l5 -49l-78 -5v-175l11 -114l25 -31l44 16l7 -19l-60 -44l-72 18l-20 71v272l21 10h-78l-10 16l125 126l18 -3z" />
    <glyph glyph-name="u" unicode="u" horiz-adv-x="473" 
d="M14 420l65 -7l65 13v-306l51 -76h75l76 49l-18 11v251l-25 34l-37 6l-4 23l69 -5l81 13l-8 -197v-168l24 -22l29 5l-3 -23l-60 -4l-63 -26l-3 73l-72 -49l-88 -18l-84 46l-13 167v142l-28 35l-24 8z" />
    <glyph glyph-name="v" unicode="v" horiz-adv-x="415" 
d="M9 423l71 -8l84 5l8 -19l-38 -6l-10 -38l99 -257l-6 -54l120 315l-20 39l-30 4v27l75 -18l56 10l5 -17l-38 -17l-176 -420l-23 55l-123 332l-34 39l-20 6v22z" />
    <glyph glyph-name="w" unicode="w" horiz-adv-x="655" 
d="M105 413l76 13v-23l-34 -3l-15 -32l87 -250l-2 -43l124 342l18 -4l89 -300v-46l115 290l-14 41l-28 6l9 19l66 -12l57 12l4 -17l-26 -5l-37 -39l-163 -392l-93 291v44l-136 -336l-111 295l-47 129l-36 8l1 15z" />
    <glyph glyph-name="x" unicode="x" horiz-adv-x="399" 
d="M105 416l76 8v-17l-16 -3l-18 -30l59 -94l3 -34l66 124l-5 30l-21 4l4 19l58 -7l66 7l4 -17l-24 -2l-48 -36l-87 -132l135 -205l28 -16l2 -15l-95 5l-78 -5v10l29 21l-3 31l-48 104l-2 19l-76 -121l8 -38l24 -8l-5 -12h-65l-67 -6v17l41 11l48 42l75 121l-114 196l-42 16
l2 17z" />
    <glyph glyph-name="y" unicode="y" horiz-adv-x="415" 
d="M88 415l82 11l3 -20l-30 -5l-12 -34l96 -272l4 -39l97 294l-18 48l-28 3l7 25l66 -11l68 11l3 -23l-41 -14l-27 -43l-189 -514l-76 -54l-44 47l44 45l36 -33l25 15l48 124l-141 378l-22 38l-28 11l1 18z" />
    <glyph glyph-name="z" unicode="z" horiz-adv-x="384" 
d="M189 410l175 6l-236 -372l-35 -20l184 13l59 35l27 75l19 -2l-36 -139h-224l-120 -12l244 383l40 14l-182 -7l-43 -29l-18 -65l-14 2l10 118h150z" />
    <glyph glyph-name="braceleft" unicode="{" horiz-adv-x="432" 
d="M72 308l55 -5l66 61v216l67 92l100 12l-2 -24l-69 -15l-40 -65v-212l-47 -55l-71 -26l79 -23l43 -88v-184l27 -62l68 -15l-1 -26l-75 11l-77 72l-8 224l-50 71l-61 3z" />
    <glyph glyph-name="bar" unicode="|" horiz-adv-x="432" 
d="M238 701v-916l-46 2v917z" />
    <glyph glyph-name="braceright" unicode="}" horiz-adv-x="432" 
d="M159 672l76 -74v-221l61 -68l61 -8l-1 -24l-73 -14l-45 -70l-5 -234l-72 -62l-83 -3v22l62 5l43 71v207l51 69l82 17l-82 16l-49 61v203l-41 83l-66 9v26z" />
    <glyph glyph-name="asciitilde" unicode="~" horiz-adv-x="392" 
d="M118 320l41 6l104 -47l59 3l43 59l19 -19l-89 -100l-53 -7l-117 55l-79 -57l-19 32z" />
    <glyph glyph-name="nonbreakingspace" unicode="&#xa0;" horiz-adv-x="292" 
 />
    <glyph glyph-name="exclamdown" unicode="&#xa1;" horiz-adv-x="291" 
d="M166 459l6 -272l20 -146l-51 -59l-54 64l20 144l26 270zM96 588l62 69l59 -74l-65 -51z" />
    <glyph glyph-name="cent" unicode="&#xa2;" horiz-adv-x="368" 
d="M230 686v-86l8 3l81 -11l39 -46l-47 -43l-76 62v-344l64 5l53 35l13 -8l-39 -51l-88 -33v-104l-39 2v103l-80 14l-87 96l-11 147l88 134l83 27v100zM140 275l54 -38v328h-29l-58 -65l-12 -109z" />
    <glyph glyph-name="sterling" unicode="&#xa3;" horiz-adv-x="540" 
d="M-26 26l57 61l68 -11l31 81l22 118l-83 8v15l93 13l60 197l92 125l131 18l69 -64l12 -38l-48 -44l-52 53l21 25l-31 45l-59 -12l-70 -113l-47 -181l113 -25l-4 -22l-122 5l-28 -111l-90 -119l39 23l222 -63l84 16l20 51l-42 33l41 49l41 -59l-43 -92l-87 -50l-72 -4
l-213 74l-80 -43z" />
    <glyph glyph-name="currency" unicode="&#xa4;" horiz-adv-x="478" 
d="M457 480l-99 -81l15 -113l-23 -48l93 -110l-41 -26l-82 88l-134 -13l-30 27l-89 -100l-42 53l91 84l-21 20v117l21 23l-81 83l53 46l71 -82l118 20l47 -38l94 85zM143 364l-4 -85l69 -66l86 27l37 108l-60 69l-73 -4z" />
    <glyph glyph-name="yen" unicode="&#xa5;" 
d="M221 314l-133 282l-54 22l3 22l93 -11l103 15l2 -20l-31 -8l-14 -33l107 -247l-6 -26h5l14 16l118 241l-23 57l-37 2v16l92 -7l95 9v-20l-25 -3l-66 -56l-136 -254l148 4l2 -63l-159 12v-102l150 13l10 -62l-160 9v-11l29 -68l59 -22v-21l-132 9l-110 -12l4 29l35 7
l38 54v34l-169 -5l5 59l164 -11v99l-166 -12v72z" />
    <glyph glyph-name="brokenbar" unicode="&#xa6;" horiz-adv-x="432" 
d="M256 177l-25 -162l18 -167l-72 12l20 166l-11 157zM246 639l-11 -177l11 -158l-68 5l26 160l-17 164z" />
    <glyph glyph-name="section" unicode="&#xa7;" horiz-adv-x="342" 
d="M283 492l-18 3l-24 62l-56 38l-50 -13l-19 -52l25 -57l153 -113l24 -69l-31 -83l-75 -33l63 -47l24 -70l-31 -82l-81 -35l-93 10l-45 25l-13 107l16 -5l34 -74l62 -40l71 15l12 82l-45 58l-129 79l-24 85l33 71l72 29l12 -1l-73 47l-27 87l36 69l72 31l42 -1l73 -30z
M123 239l56 -40l58 12l9 53l-23 59l-57 38l-50 -11l-18 -55z" />
    <glyph glyph-name="dieresis" unicode="&#xa8;" horiz-adv-x="350" 
d="M27 558l51 63l56 -51l-45 -60zM215 562l52 59l54 -54l-49 -53z" />
    <glyph glyph-name="ordfeminine" unicode="&#xaa;" horiz-adv-x="288" 
d="M26 567l35 50l103 40l69 -56v-203l24 -30h20l5 -20l-28 -7l-52 2l-25 13l8 29l-60 -42l-67 11l-35 72l20 59l140 62l-25 49l-59 13l-19 -11l11 -25l-30 -31zM80 474l-8 -58l41 -42l34 1l36 31l-6 107l9 21z" />
    <glyph glyph-name="guillemotleft" unicode="&#xab;" horiz-adv-x="400" 
d="M375 378l-56 -104l-72 -58l70 -56l60 -99l-14 -18l-183 170l176 174zM217 377l-64 -107l-65 -52l67 -56l64 -95l-24 -24l-86 102l-90 73l181 169z" />
    <glyph glyph-name="logicalnot" unicode="&#xac;" horiz-adv-x="520" 
d="M468 300l10 -291l-65 6l5 226l-379 -6l3 79z" />
    <glyph glyph-name="macron" unicode="&#xaf;" horiz-adv-x="335" 
d="M168 572l128 16l9 -64l-137 5l-136 -8l-5 62z" />
    <glyph glyph-name="degree" unicode="&#xb0;" horiz-adv-x="284" 
d="M183 650l69 -56l13 -100l-39 -81l-121 -12l-78 72v100l55 60zM68 561l-3 -73l59 -56l73 23l32 92l-51 59l-63 -3z" />
    <glyph glyph-name="plusminus" unicode="&#xb1;" horiz-adv-x="400" 
d="M37 0zM237 478l-11 -170l142 -8l-9 -53l-131 -5l16 -165l-65 6l5 156l-145 -4l3 79l144 -13v173zM366 35l-9 -61l-175 2l-145 -9l3 79l144 -13z" />
    <glyph glyph-name="twosuperior" unicode="&#xb2;" horiz-adv-x="314" 
d="M96 631l77 17l80 -52l-2 -111l-76 -103l-114 -94l37 15l121 -3l34 17l29 42l14 -7l-42 -103l-104 8l-134 -10l-5 23l172 159l24 101l-27 55l-81 11l-53 -50l-23 12z" />
    <glyph glyph-name="threesuperior" unicode="&#xb3;" horiz-adv-x="314" 
d="M105 631l81 14l56 -24l18 -56l-25 -49l-88 -55l43 8l32 -12l48 -47l9 -67l-33 -55l-73 -32h-89l-56 60l44 39l27 -27l-3 -28l31 -25l56 2l40 54l-6 70l-77 36l-68 -19l-9 11l124 68l20 60l-29 44l-71 4l-56 -52l-16 13z" />
    <glyph glyph-name="acute" unicode="&#xb4;" horiz-adv-x="202" 
d="M183 634l-138 -131l-16 14l90 165z" />
    <glyph glyph-name="paragraph" unicode="&#xb6;" horiz-adv-x="432" 
d="M404 639l-44 -15v-618l-46 -3v619h-136l56 -17v-559l-64 -61l-17 24l34 32v318l-37 -5l-106 55l-25 127l102 118l179 10l107 22z" />
    <glyph glyph-name="periodcentered" unicode="&#xb7;" horiz-adv-x="238" 
d="M180 320l-64 -64l-58 69l67 53z" />
    <glyph glyph-name="cedilla" unicode="&#xb8;" horiz-adv-x="227" 
d="M188 12l-35 -35l-12 -23l57 -83v-47l-68 -56l-57 -14l-46 38l37 45l57 -45l39 23l-73 93l13 30l74 79z" />
    <glyph glyph-name="onesuperior" unicode="&#xb9;" horiz-adv-x="315" 
d="M58 652l78 -17l57 12l-8 -327l25 -40l58 -10l-8 -24l-207 8l-5 20h56l33 43l-12 292l-71 22z" />
    <glyph glyph-name="ordmasculine" unicode="&#xba;" horiz-adv-x="357" 
d="M217 645l108 -57l19 -140l-74 -93l-124 -9l-120 74l-12 112l88 96zM127 616l-58 -77l9 -113l72 -62l96 16l36 87l-7 102l-26 37l-34 15z" />
    <glyph glyph-name="guillemotright" unicode="&#xbb;" horiz-adv-x="400" 
d="M46 387l181 -172l-183 -173l-23 12l63 114l68 49l-74 69l-51 87zM199 382l192 -171l-192 -165l-19 27l63 94l71 49l-63 58l-70 93z" />
    <glyph glyph-name="onequarter" unicode="&#xbc;" horiz-adv-x="745" 
d="M444 133l195 242l30 -13l-16 -72l9 -145l77 2l-7 -37l-80 -4l-1 -58l35 -27l28 -6l-3 -17h-152l-7 25l43 3l12 36l-3 48h-150zM594 617l-211 -313l-186 -330l-39 31l199 317l204 335zM58 652l67 -17l61 12v-318l31 -25l37 -7l-8 -22l-168 5l-2 21l52 22l-9 294l-63 4z
M635 148l-24 20l5 133l-125 -153h144z" />
    <glyph glyph-name="onehalf" unicode="&#xbd;" horiz-adv-x="745" 
d="M547 356h95l54 -59l-16 -99l-128 -133l-50 -23l165 -5l47 66l14 4l-46 -110l-215 -12l-9 25l168 175l9 105l-83 39l-64 -57l-13 18zM592 627l-202 -302l-190 -361l-36 33l208 339l177 329zM53 648l83 -11l47 5v-306l17 -42l46 4l1 -20l-104 5l-87 -3l3 21l45 2l30 45
l-10 279h-63z" />
    <glyph glyph-name="threequarters" unicode="&#xbe;" horiz-adv-x="745" 
d="M662 361l-5 -213h75v-35h-70v-83l51 -15l12 -21h-172l4 21l46 11l4 69l24 18l-187 -9l4 25l187 243zM68 608l70 40l74 -3l30 -54l-16 -64l-89 -60l52 16l42 -18l37 -56l-12 -83l-54 -39l-95 -15l-81 62l30 39l46 -17l-12 -23l44 -36l61 12l17 66l-51 67l-81 -13l-15 13
l133 93l-11 48l-47 29l-82 -45l-16 3zM589 629l-200 -312l-194 -351l-40 31l207 328l185 337zM611 152v131l15 31l-129 -162h114z" />
    <glyph glyph-name="questiondown" unicode="&#xbf;" horiz-adv-x="444" 
d="M352 40l-87 -55h-120l-87 65l-17 128l22 62l165 137l21 32l-14 47l-36 22l37 39l54 -50l-12 -63l-134 -133l-21 -34l14 -118l81 -69l103 22l67 63l23 -10zM172 585l48 62l50 -51l-47 -56z" />
    <glyph glyph-name="Agrave" unicode="&#xc0;" horiz-adv-x="618" 
d="M9 0zM9 23l41 5l38 53l215 602l33 12l114 -376l95 -243l50 -50l36 -5l-8 -23l-117 5l-95 -6l-10 29l31 -3l29 49l-64 180l12 18h-231l7 -16l-52 -164l14 -64l65 -9l5 -20l-108 11l-100 -11v26zM391 298l-95 248l3 53l-104 -294zM252 910l92 -172l-26 -9l-127 141z" />
    <glyph glyph-name="Aacute" unicode="&#xc1;" horiz-adv-x="618" 
d="M9 0zM9 23l41 5l38 53l215 602l33 12l114 -376l95 -243l50 -50l36 -5l-8 -23l-117 5l-95 -6l-10 29l31 -3l29 49l-64 180l12 18h-231l7 -16l-52 -164l14 -64l65 -9l5 -20l-108 11l-100 -11v26zM391 298l-95 248l3 53l-104 -294zM439 857l-138 -131l-16 14l90 165z" />
    <glyph glyph-name="Acircumflex" unicode="&#xc2;" horiz-adv-x="618" 
d="M9 0zM9 23l41 5l38 53l215 602l33 12l114 -376l95 -243l50 -50l36 -5l-8 -23l-117 5l-95 -6l-10 29l31 -3l29 49l-64 180l12 18h-231l7 -16l-52 -164l14 -64l65 -9l5 -20l-108 11l-100 -11v26zM391 298l-95 248l3 53l-104 -294zM213 751l100 155l104 -162l-22 -15l-79 79
l8 43l-90 -132l-34 18z" />
    <glyph glyph-name="Atilde" unicode="&#xc3;" horiz-adv-x="618" 
d="M9 0zM9 23l41 5l38 53l215 602l33 12l114 -376l95 -243l50 -50l36 -5l-8 -23l-117 5l-95 -6l-10 29l31 -3l29 49l-64 180l12 18h-231l7 -16l-52 -164l14 -64l65 -9l5 -20l-108 11l-100 -11v26zM391 298l-95 248l3 53l-104 -294zM226 818l38 5l98 -36l55 2l41 45l18 -14
l-84 -76l-49 -6l-111 42l-74 -43l-18 24z" />
    <glyph glyph-name="Adieresis" unicode="&#xc4;" horiz-adv-x="618" 
d="M9 0zM9 23l41 5l38 53l215 602l33 12l114 -376l95 -243l50 -50l36 -5l-8 -23l-117 5l-95 -6l-10 29l31 -3l29 49l-64 180l12 18h-231l7 -16l-52 -164l14 -64l65 -9l5 -20l-108 11l-100 -11v26zM391 298l-95 248l3 53l-104 -294zM162 781l51 63l56 -51l-45 -60zM350 785
l52 59l54 -54l-49 -53z" />
    <glyph glyph-name="Aring" unicode="&#xc5;" horiz-adv-x="618" 
d="M9 0zM9 23l41 5l38 53l215 602l33 12l114 -376l95 -243l50 -50l36 -5l-8 -23l-117 5l-95 -6l-10 29l31 -3l29 49l-64 180l12 18h-231l7 -16l-52 -164l14 -64l65 -9l5 -20l-108 11l-100 -11v26zM391 298l-95 248l3 53l-104 -294zM338 923l54 -45l11 -78l-32 -64l-95 -10
l-61 57v80l43 47zM248 852l-3 -57l46 -44l57 19l25 72l-38 47l-51 -2z" />
    <glyph glyph-name="AE" unicode="&#xc6;" horiz-adv-x="885" 
d="M9 23l41 5l38 53l358 553l60 8l135 -2l192 2l-17 -69l6 -77l-18 -2l-19 87l-74 36l-140 -12v-259l123 5l56 38l15 55l22 -7l-13 -108l8 -100l-26 -2l-11 51l-61 33h-133l18 -21v-190l56 -67l51 -12l97 16l68 74l14 91l23 -9l-11 -93l-33 -109h-439l6 35l80 44v237
l-201 -6l-60 -81l-87 -130l14 -64l65 -9l5 -20l-108 11l-100 -11v26zM467 352l9 235l-45 -54l-121 -193z" />
    <glyph glyph-name="Ccedilla" unicode="&#xc7;" horiz-adv-x="618" 
d="M583 531l9 -88l-27 3l-17 76l-35 74l-109 35l-144 -33l-98 -115l-32 -161l20 -148l99 -113l131 -51l97 16l89 94l28 83l20 -5l-49 -175l-100 -32l-87 -5l-8 -9l-13 -23l57 -83v-47l-67 -56l-58 -14l-45 38l37 45l57 -45l38 23l-72 93l13 30l43 47l-27 -2l-161 56
l-110 102l-37 164l31 157l88 125l143 60l181 7l109 -54z" />
    <glyph glyph-name="Egrave" unicode="&#xc8;" 
d="M31 0zM496 642l-17 -69l6 -77l-18 -2l-19 87l-74 36l-201 -8l34 -4v-259l142 5l56 38l14 55l23 -7l-15 -108l10 -100l-26 -2l-12 51l-61 33h-151l18 -21v-190l55 -67l79 -12l97 16l68 74l14 91l24 -9l-12 -93l-33 -100h-317l-149 -9l6 24l62 22l26 69v452l-37 61h-45
l1 23h452zM227 910l92 -172l-26 -9l-127 141z" />
    <glyph glyph-name="Eacute" unicode="&#xc9;" 
d="M31 0zM496 642l-17 -69l6 -77l-18 -2l-19 87l-74 36l-201 -8l34 -4v-259l142 5l56 38l14 55l23 -7l-15 -108l10 -100l-26 -2l-12 51l-61 33h-151l18 -21v-190l55 -67l79 -12l97 16l68 74l14 91l24 -9l-12 -93l-33 -100h-317l-149 -9l6 24l62 22l26 69v452l-37 61h-45
l1 23h452zM424 857l-138 -131l-16 14l90 165z" />
    <glyph glyph-name="Ecircumflex" unicode="&#xca;" 
d="M31 0zM496 642l-17 -69l6 -77l-18 -2l-19 87l-74 36l-201 -8l34 -4v-259l142 5l56 38l14 55l23 -7l-15 -108l10 -100l-26 -2l-12 51l-61 33h-151l18 -21v-190l55 -67l79 -12l97 16l68 74l14 91l24 -9l-12 -93l-33 -100h-317l-149 -9l6 24l62 22l26 69v452l-37 61h-45
l1 23h452zM188 751l100 155l104 -162l-22 -15l-79 79l8 43l-90 -132l-34 18z" />
    <glyph glyph-name="Edieresis" unicode="&#xcb;" 
d="M31 0zM496 642l-17 -69l6 -77l-18 -2l-19 87l-74 36l-201 -8l34 -4v-259l142 5l56 38l14 55l23 -7l-15 -108l10 -100l-26 -2l-12 51l-61 33h-151l18 -21v-190l55 -67l79 -12l97 16l68 74l14 91l24 -9l-12 -93l-33 -100h-317l-149 -9l6 24l62 22l26 69v452l-37 61h-45
l1 23h452zM138 781l51 63l56 -51l-45 -60zM326 785l52 59l54 -54l-49 -53z" />
    <glyph glyph-name="Igrave" unicode="&#xcc;" horiz-adv-x="333" 
d="M29 0zM37 651l133 -27l133 21l6 -21l-58 -16l-44 -67v-456l33 -54l60 -16v-24l-142 22l-121 -16v26l73 23l11 44v487l-60 40l-32 4zM109 910l92 -172l-26 -9l-127 141z" />
    <glyph glyph-name="Iacute" unicode="&#xcd;" horiz-adv-x="333" 
d="M29 0zM37 651l133 -27l133 21l6 -21l-58 -16l-44 -67v-456l33 -54l60 -16v-24l-142 22l-121 -16v26l73 23l11 44v487l-60 40l-32 4zM296 857l-138 -131l-16 14l90 165z" />
    <glyph glyph-name="Icircumflex" unicode="&#xce;" horiz-adv-x="333" 
d="M29 0zM37 651l133 -27l133 21l6 -21l-58 -16l-44 -67v-456l33 -54l60 -16v-24l-142 22l-121 -16v26l73 23l11 44v487l-60 40l-32 4zM70 751l100 155l104 -162l-22 -15l-79 79l8 43l-90 -132l-34 18z" />
    <glyph glyph-name="Idieresis" unicode="&#xcf;" horiz-adv-x="333" 
d="M20 0zM37 651l133 -27l133 21l6 -21l-58 -16l-44 -67v-456l33 -54l60 -16v-24l-142 22l-121 -16v26l73 23l11 44v487l-60 40l-32 4zM20 781l51 63l56 -51l-45 -60zM208 785l52 59l54 -54l-49 -53z" />
    <glyph glyph-name="Eth" unicode="&#xd0;" horiz-adv-x="715" 
d="M53 367l78 -11v190l-36 70h-47l-1 24l103 -4l92 15h101l149 -45l136 -109l49 -147l-22 -167l-113 -119l-130 -58l-133 -12l-110 9l-126 -12l-4 24l56 19l36 66v196h-83zM205 605v-258l161 13l-6 -82l-155 18v-152l17 -68l80 -59l124 17l90 72l49 109v155l-51 135l-115 80
l-127 37l-89 -3z" />
    <glyph glyph-name="Ntilde" unicode="&#xd1;" horiz-adv-x="716" 
d="M0 0zM63 644l75 7l407 -475l30 -46l-9 411l-35 73l-74 13l2 24l125 -12l106 9l6 -22l-57 -10l-39 -68v-504l12 -78l-440 499l-24 67v-428l49 -63l49 -17l1 -27l-120 6l-130 -16l-2 21l73 22l46 85v419l-55 78l-68 7l-3 20zM276 818l38 5l98 -36l55 2l41 45l18 -14
l-84 -76l-49 -6l-111 42l-74 -43l-18 24z" />
    <glyph glyph-name="Ograve" unicode="&#xd2;" horiz-adv-x="717" 
d="M27 0zM97 553l157 92l184 6l156 -78l83 -162v-182l-71 -144l-141 -87l-142 -10l-143 45l-106 100l-47 189l8 65zM173 522l-42 -191l30 -155l95 -130l133 -25l133 64l55 131l5 171l-54 145l-67 76l-98 23l-95 -23zM301 910l92 -172l-26 -9l-127 141z" />
    <glyph glyph-name="Oacute" unicode="&#xd3;" horiz-adv-x="717" 
d="M27 0zM97 553l157 92l184 6l156 -78l83 -162v-182l-71 -144l-141 -87l-142 -10l-143 45l-106 100l-47 189l8 65zM173 522l-42 -191l30 -155l95 -130l133 -25l133 64l55 131l5 171l-54 145l-67 76l-98 23l-95 -23zM488 857l-138 -131l-16 14l90 165z" />
    <glyph glyph-name="Ocircumflex" unicode="&#xd4;" horiz-adv-x="717" 
d="M27 0zM97 553l157 92l184 6l156 -78l83 -162v-182l-71 -144l-141 -87l-142 -10l-143 45l-106 100l-47 189l8 65zM173 522l-42 -191l30 -155l95 -130l133 -25l133 64l55 131l5 171l-54 145l-67 76l-98 23l-95 -23zM262 751l100 155l104 -162l-22 -15l-79 79l8 43l-90 -132
l-34 18z" />
    <glyph glyph-name="Otilde" unicode="&#xd5;" horiz-adv-x="717" 
d="M27 0zM97 553l157 92l184 6l156 -78l83 -162v-182l-71 -144l-141 -87l-142 -10l-143 45l-106 100l-47 189l8 65zM173 522l-42 -191l30 -155l95 -130l133 -25l133 64l55 131l5 171l-54 145l-67 76l-98 23l-95 -23zM276 818l38 5l98 -36l55 2l41 45l18 -14l-84 -76l-49 -6
l-111 42l-74 -43l-18 24z" />
    <glyph glyph-name="Odieresis" unicode="&#xd6;" horiz-adv-x="717" 
d="M27 0zM97 553l157 92l184 6l156 -78l83 -162v-182l-71 -144l-141 -87l-142 -10l-143 45l-106 100l-47 189l8 65zM173 522l-42 -191l30 -155l95 -130l133 -25l133 64l55 131l5 171l-54 145l-67 76l-98 23l-95 -23zM211 781l51 63l56 -51l-45 -60zM399 785l52 59l54 -54
l-49 -53z" />
    <glyph glyph-name="multiply" unicode="&#xd7;" horiz-adv-x="400" 
d="M364 373l-118 -96l93 -111l-41 -26l-95 95l-97 -113l-42 53l107 91l-104 107l53 46l93 -117l112 106z" />
    <glyph glyph-name="Oslash" unicode="&#xd8;" horiz-adv-x="717" 
d="M97 553l157 92l184 6l156 -78l83 -162v-182l-71 -144l-141 -87l-142 -10l-143 45l-106 100l-47 189l8 65zM539 499l-171 -186l-167 -194l55 -73l133 -25l133 64l55 131l5 171zM173 522l-42 -191l30 -155l9 -14l184 168l165 210l-58 68l-98 23l-95 -23z" />
    <glyph glyph-name="Ugrave" unicode="&#xd9;" horiz-adv-x="715" 
d="M27 0zM162 634l124 11l-2 -26l-49 -5l-38 -68v-395l76 -98l131 -14l110 29l53 99v372l-33 67l-55 20l6 16l110 -5l92 5l-1 -21l-36 -10l-33 -62v-282l-25 -151l-90 -106l-144 -25l-149 30l-95 116v417l-36 63l-47 8l-4 20zM300 910l92 -172l-26 -9l-127 141z" />
    <glyph glyph-name="Uacute" unicode="&#xda;" horiz-adv-x="715" 
d="M27 0zM162 634l124 11l-2 -26l-49 -5l-38 -68v-395l76 -98l131 -14l110 29l53 99v372l-33 67l-55 20l6 16l110 -5l92 5l-1 -21l-36 -10l-33 -62v-282l-25 -151l-90 -106l-144 -25l-149 30l-95 116v417l-36 63l-47 8l-4 20zM487 857l-138 -131l-16 14l90 165z" />
    <glyph glyph-name="Ucircumflex" unicode="&#xdb;" horiz-adv-x="715" 
d="M27 0zM162 634l124 11l-2 -26l-49 -5l-38 -68v-395l76 -98l131 -14l110 29l53 99v372l-33 67l-55 20l6 16l110 -5l92 5l-1 -21l-36 -10l-33 -62v-282l-25 -151l-90 -106l-144 -25l-149 30l-95 116v417l-36 63l-47 8l-4 20zM261 751l100 155l104 -162l-22 -15l-79 79l8 43
l-90 -132l-34 18z" />
    <glyph glyph-name="Udieresis" unicode="&#xdc;" horiz-adv-x="715" 
d="M27 0zM162 634l124 11l-2 -26l-49 -5l-38 -68v-395l76 -98l131 -14l110 29l53 99v372l-33 67l-55 20l6 16l110 -5l92 5l-1 -21l-36 -10l-33 -62v-282l-25 -151l-90 -106l-144 -25l-149 30l-95 116v417l-36 63l-47 8l-4 20zM210 781l51 63l56 -51l-45 -60zM398 785l52 59
l54 -54l-49 -53z" />
    <glyph glyph-name="Yacute" unicode="&#xdd;" 
d="M34 0zM130 629l103 15l2 -20l-31 -8l-14 -33l107 -247l-8 -33l21 23l118 241l-23 57l-37 2v16l92 -7l95 9v-20l-25 -3l-66 -56l-145 -271v-183l29 -68l59 -22v-21l-132 9l-110 -12l4 29l35 7l38 54v183l-154 326l-54 22l3 22zM415 857l-138 -131l-16 14l90 165z" />
    <glyph glyph-name="Thorn" unicode="&#xde;" horiz-adv-x="523" 
d="M168 631l128 13l3 -22l-73 -23l-22 -57l-9 -35l48 6l124 -13l110 -87l15 -121l-51 -96l-125 -49l-116 -11l-3 -58l37 -32l69 -18l-9 -31l-119 13l-141 -15l8 26l51 16l31 58v440l-31 68l-53 18l4 18zM200 467v-305l47 -5l79 26l64 53l11 110l-43 88l-106 49l-74 -5z" />
    <glyph glyph-name="germandbls" unicode="&#xdf;" horiz-adv-x="474" 
d="M23 18l35 3l22 46v388l20 93l124 116l95 12l78 -73l5 -82l-100 -101l-5 -55l151 -178v-95l-67 -83l-72 -18l-26 -1l-37 38l39 48l46 -48l39 13l22 56l-9 66l-145 141v63l22 46l68 88l3 74l-37 53l-55 22l-75 -84l-16 -140v-383l41 -28l37 2l4 -25l-116 14l-91 -11v23z
" />
    <glyph glyph-name="agrave" unicode="&#xe0;" horiz-adv-x="382" 
d="M35 0zM249 276l-2 56l-23 42l-57 21l-54 -47l24 -34l-48 -40l-46 42l120 108l92 5l59 -88l-10 -249l43 -59l22 2l5 -20l-90 -20l-40 38l13 24l-52 -44l-75 -19l-87 45l-8 122l67 54l169 55zM98 176l-2 -92l51 -41l53 -4l49 38l-5 161zM133 687l92 -172l-26 -9l-127 141z
" />
    <glyph glyph-name="aacute" unicode="&#xe1;" horiz-adv-x="382" 
d="M35 0zM249 276l-2 56l-23 42l-57 21l-54 -47l24 -34l-48 -40l-46 42l120 108l92 5l59 -88l-10 -249l43 -59l22 2l5 -20l-90 -20l-40 38l13 24l-52 -44l-75 -19l-87 45l-8 122l67 54l169 55zM98 176l-2 -92l51 -41l53 -4l49 38l-5 161zM321 634l-138 -131l-16 14l90 165z
" />
    <glyph glyph-name="acircumflex" unicode="&#xe2;" horiz-adv-x="382" 
d="M35 0zM249 276l-2 56l-23 42l-57 21l-54 -47l24 -34l-48 -40l-46 42l120 108l92 5l59 -88l-10 -249l43 -59l22 2l5 -20l-90 -20l-40 38l13 24l-52 -44l-75 -19l-87 45l-8 122l67 54l169 55zM98 176l-2 -92l51 -41l53 -4l49 38l-5 161zM95 528l100 155l104 -162l-22 -15
l-79 79l8 43l-90 -132l-34 18z" />
    <glyph glyph-name="atilde" unicode="&#xe3;" horiz-adv-x="382" 
d="M24 0zM249 276l-2 56l-23 42l-57 21l-54 -47l24 -34l-48 -40l-46 42l120 108l92 5l59 -88l-10 -249l43 -59l22 2l5 -20l-90 -20l-40 38l13 24l-52 -44l-75 -19l-87 45l-8 122l67 54l169 55zM98 176l-2 -92l51 -41l53 -4l49 38l-5 161zM110 595l38 5l98 -36l55 2l41 45
l18 -14l-84 -76l-49 -6l-111 42l-74 -43l-18 24z" />
    <glyph glyph-name="adieresis" unicode="&#xe4;" horiz-adv-x="382" 
d="M35 0zM249 276l-2 56l-23 42l-57 21l-54 -47l24 -34l-48 -40l-46 42l120 108l92 5l59 -88l-10 -249l43 -59l22 2l5 -20l-90 -20l-40 38l13 24l-52 -44l-75 -19l-87 45l-8 122l67 54l169 55zM98 176l-2 -92l51 -41l53 -4l49 38l-5 161zM44 558l51 63l56 -51l-45 -60z
M232 562l52 59l54 -54l-49 -53z" />
    <glyph glyph-name="aring" unicode="&#xe5;" horiz-adv-x="382" 
d="M35 0zM249 276l-2 56l-23 42l-57 21l-54 -47l24 -34l-48 -40l-46 42l120 108l92 5l59 -88l-10 -249l43 -59l22 2l5 -20l-90 -20l-40 38l13 24l-52 -44l-75 -19l-87 45l-8 122l67 54l169 55zM98 176l-2 -92l51 -41l53 -4l49 38l-5 161zM220 700l54 -45l11 -78l-32 -64
l-95 -10l-61 57v80l43 47zM130 629l-3 -57l46 -44l57 19l25 72l-38 47l-51 -2z" />
    <glyph glyph-name="ae" unicode="&#xe6;" horiz-adv-x="593" 
d="M385 424l92 -7l70 -51l28 -120l-274 -26l21 -130l91 -53l109 23l43 56l17 -22l-88 -87l-123 -22l-99 61l-23 11l-52 -44l-76 -19l-87 45l-7 120l68 54l144 25l7 57l-29 79l-58 21l-55 -47l26 -34l-50 -40l-45 42l118 108l94 5l48 -73l31 41zM90 174l-2 -90l50 -41l54 -4
l50 38v139zM492 271l-18 94l-67 40l-51 -19l-30 -37l-17 -105z" />
    <glyph glyph-name="ccedilla" unicode="&#xe7;" horiz-adv-x="368" 
d="M358 374l-47 -43l-73 62h-73l-58 -65l-12 -108l45 -116l84 -56l75 6l53 36l13 -9l-39 -50l-96 -36l-18 -18l-12 -23l56 -83v-47l-67 -56l-58 -14l-45 38l37 45l57 -45l38 23l-72 93l13 30l55 59l-95 16l-87 95l-11 148l88 133l129 43l81 -12z" />
    <glyph glyph-name="egrave" unicode="&#xe8;" horiz-adv-x="383" 
d="M17 0zM173 431l92 -7l71 -51l27 -121l-302 -31l36 -10l-4 -15l39 -88l95 -60l83 19l44 58l17 -22l-89 -90l-83 -21l-109 36l-73 131l25 150l73 95zM287 278l-17 94l-69 39l-57 -18l-36 -38l-12 -104zM134 687l92 -172l-26 -9l-127 141z" />
    <glyph glyph-name="eacute" unicode="&#xe9;" horiz-adv-x="383" 
d="M17 0zM173 431l92 -7l71 -51l27 -121l-302 -31l36 -10l-4 -15l39 -88l95 -60l83 19l44 58l17 -22l-89 -90l-83 -21l-109 36l-73 131l25 150l73 95zM287 278l-17 94l-69 39l-57 -18l-36 -38l-12 -104zM321 634l-138 -131l-16 14l90 165z" />
    <glyph glyph-name="ecircumflex" unicode="&#xea;" horiz-adv-x="383" 
d="M17 0zM173 431l92 -7l71 -51l27 -121l-302 -31l36 -10l-4 -15l39 -88l95 -60l83 19l44 58l17 -22l-89 -90l-83 -21l-109 36l-73 131l25 150l73 95zM287 278l-17 94l-69 39l-57 -18l-36 -38l-12 -104zM96 528l100 155l104 -162l-22 -15l-79 79l8 43l-90 -132l-34 18z" />
    <glyph glyph-name="edieresis" unicode="&#xeb;" horiz-adv-x="383" 
d="M17 0zM173 431l92 -7l71 -51l27 -121l-302 -31l36 -10l-4 -15l39 -88l95 -60l83 19l44 58l17 -22l-89 -90l-83 -21l-109 36l-73 131l25 150l73 95zM287 278l-17 94l-69 39l-57 -18l-36 -38l-12 -104zM44 558l51 63l56 -51l-45 -60zM232 562l52 59l54 -54l-49 -53z" />
    <glyph glyph-name="igrave" unicode="&#xec;" horiz-adv-x="226" 
d="M0 0zM21 382l68 22l59 33l17 -11l-16 -361l33 -39l26 -16l-3 -18l-85 13l-99 -5l5 24l38 4l25 48l-9 252l-34 40l-18 -6zM57 687l92 -172l-26 -9l-127 141z" />
    <glyph glyph-name="iacute" unicode="&#xed;" horiz-adv-x="226" 
d="M21 0zM21 382l68 22l59 33l17 -11l-16 -361l33 -39l26 -16l-3 -18l-85 13l-99 -5l5 24l38 4l25 48l-9 252l-34 40l-18 -6zM243 634l-138 -131l-16 14l90 165z" />
    <glyph glyph-name="icircumflex" unicode="&#xee;" horiz-adv-x="226" 
d="M5 0zM21 382l68 22l59 33l17 -11l-16 -361l33 -39l26 -16l-3 -18l-85 13l-99 -5l5 24l38 4l25 48l-9 252l-34 40l-18 -6zM18 528l100 155l104 -162l-22 -15l-79 79l8 43l-90 -132l-34 18z" />
    <glyph glyph-name="idieresis" unicode="&#xef;" horiz-adv-x="226" 
d="M0 0zM21 382l68 22l59 33l17 -11l-16 -361l33 -39l26 -16l-3 -18l-85 13l-99 -5l5 24l38 4l25 48l-9 252l-34 40l-18 -6zM-33 558l51 63l56 -51l-45 -60zM155 562l52 59l54 -54l-49 -53z" />
    <glyph glyph-name="eth" unicode="&#xf0;" horiz-adv-x="455" 
d="M150 660l45 26l73 -85l76 78l31 -32l-96 -64l44 -54l91 -172l20 -159l-83 -162l-125 -48l-133 33l-76 124l17 149l98 116l114 33l84 -42l-94 147l-95 -74l-31 26l107 65l-74 53l-39 1l-6 17zM147 385l-28 -41l-21 -139l48 -123l74 -59l72 7l45 57l19 121l-31 157l-67 46
l-83 -11z" />
    <glyph glyph-name="ntilde" unicode="&#xf1;" horiz-adv-x="468" 
d="M25 0zM27 378l66 20l50 39l12 -11l-9 -70l58 45l112 33l78 -45l18 -89v-244l30 -35l12 -6l1 -18l-78 9l-84 -11l-3 23l32 8l24 39v236l-44 76l-72 5l-114 -53l28 2v-269l26 -38l35 -7l-3 -12h-95l-77 -3l-5 15l28 11l25 47v253l-32 39l-11 -5zM152 595l38 5l98 -36l55 2
l41 45l18 -14l-84 -76l-49 -6l-111 42l-74 -43l-18 24z" />
    <glyph glyph-name="ograve" unicode="&#xf2;" horiz-adv-x="476" 
d="M19 0zM343 411l75 -55l39 -114l-20 -129l-72 -89l-119 -30l-122 21l-87 80l-18 126l53 146l113 57h111zM116 319l-19 -160l49 -105l80 -39l80 11l50 84l24 142l-34 105l-69 44l-87 -3zM181 687l92 -172l-26 -9l-127 141z" />
    <glyph glyph-name="oacute" unicode="&#xf3;" horiz-adv-x="476" 
d="M19 0zM343 411l75 -55l39 -114l-20 -129l-72 -89l-119 -30l-122 21l-87 80l-18 126l53 146l113 57h111zM116 319l-19 -160l49 -105l80 -39l80 11l50 84l24 142l-34 105l-69 44l-87 -3zM367 634l-138 -131l-16 14l90 165z" />
    <glyph glyph-name="ocircumflex" unicode="&#xf4;" horiz-adv-x="476" 
d="M19 0zM343 411l75 -55l39 -114l-20 -129l-72 -89l-119 -30l-122 21l-87 80l-18 126l53 146l113 57h111zM116 319l-19 -160l49 -105l80 -39l80 11l50 84l24 142l-34 105l-69 44l-87 -3zM142 528l100 155l104 -162l-22 -15l-79 79l8 43l-90 -132l-34 18z" />
    <glyph glyph-name="otilde" unicode="&#xf5;" horiz-adv-x="476" 
d="M19 0zM343 411l75 -55l39 -114l-20 -129l-72 -89l-119 -30l-122 21l-87 80l-18 126l53 146l113 57h111zM116 319l-19 -160l49 -105l80 -39l80 11l50 84l24 142l-34 105l-69 44l-87 -3zM156 595l38 5l98 -36l55 2l41 45l18 -14l-84 -76l-49 -6l-111 42l-74 -43l-18 24z
" />
    <glyph glyph-name="odieresis" unicode="&#xf6;" horiz-adv-x="476" 
d="M19 0zM343 411l75 -55l39 -114l-20 -129l-72 -89l-119 -30l-122 21l-87 80l-18 126l53 146l113 57h111zM116 319l-19 -160l49 -105l80 -39l80 11l50 84l24 142l-34 105l-69 44l-87 -3zM90 558l51 63l56 -51l-45 -60zM278 562l52 59l54 -54l-49 -53z" />
    <glyph glyph-name="divide" unicode="&#xf7;" horiz-adv-x="409" 
d="M39 49zM368 303l-9 -61l-175 2l-145 -9l3 79l144 -13zM261 113l-52 -64l-54 52l54 72zM260 440l-52 -64l-54 52l54 72z" />
    <glyph glyph-name="oslash" unicode="&#xf8;" horiz-adv-x="476" 
d="M343 411l75 -55l39 -114l-20 -129l-72 -89l-119 -30l-122 21l-87 80l-18 126l53 146l113 57h111zM116 319l-19 -160l24 -52l131 124l91 132l-66 38l-87 -3zM358 316l-100 -100l-122 -140l10 -22l80 -39l80 11l50 84l24 142z" />
    <glyph glyph-name="ugrave" unicode="&#xf9;" horiz-adv-x="473" 
d="M14 0zM14 420l65 -7l65 13v-306l51 -76h75l76 49l-18 11v251l-25 34l-37 6l-4 23l69 -5l81 13l-8 -197v-168l24 -22l29 5l-3 -23l-60 -4l-63 -26l-3 73l-72 -49l-88 -18l-84 46l-13 167v142l-28 35l-24 8zM179 687l92 -172l-26 -9l-127 141z" />
    <glyph glyph-name="uacute" unicode="&#xfa;" horiz-adv-x="473" 
d="M14 0zM14 420l65 -7l65 13v-306l51 -76h75l76 49l-18 11v251l-25 34l-37 6l-4 23l69 -5l81 13l-8 -197v-168l24 -22l29 5l-3 -23l-60 -4l-63 -26l-3 73l-72 -49l-88 -18l-84 46l-13 167v142l-28 35l-24 8zM366 634l-138 -131l-16 14l90 165z" />
    <glyph glyph-name="ucircumflex" unicode="&#xfb;" horiz-adv-x="473" 
d="M14 0zM14 420l65 -7l65 13v-306l51 -76h75l76 49l-18 11v251l-25 34l-37 6l-4 23l69 -5l81 13l-8 -197v-168l24 -22l29 5l-3 -23l-60 -4l-63 -26l-3 73l-72 -49l-88 -18l-84 46l-13 167v142l-28 35l-24 8zM140 528l100 155l104 -162l-22 -15l-79 79l8 43l-90 -132l-34 18
z" />
    <glyph glyph-name="udieresis" unicode="&#xfc;" horiz-adv-x="473" 
d="M14 0zM14 420l65 -7l65 13v-306l51 -76h75l76 49l-18 11v251l-25 34l-37 6l-4 23l69 -5l81 13l-8 -197v-168l24 -22l29 5l-3 -23l-60 -4l-63 -26l-3 73l-72 -49l-88 -18l-84 46l-13 167v142l-28 35l-24 8zM89 558l51 63l56 -51l-45 -60zM277 562l52 59l54 -54l-49 -53z
" />
    <glyph glyph-name="yacute" unicode="&#xfd;" horiz-adv-x="415" 
d="M11 0zM88 415l82 11l3 -20l-30 -5l-12 -34l96 -272l4 -39l97 294l-18 48l-28 3l7 25l66 -11l68 11l3 -23l-41 -14l-27 -43l-189 -514l-76 -54l-44 47l44 45l36 -33l25 15l48 124l-141 378l-22 38l-28 11l1 18zM337 634l-138 -131l-16 14l90 165z" />
    <glyph glyph-name="thorn" unicode="&#xfe;" horiz-adv-x="475" 
d="M28 645l60 7l48 35l17 -18l-23 -302l124 62l129 -25l67 -118l-11 -155l-74 -90l-93 -41l-85 -10l-53 28l14 -33l-8 -183l26 -37l74 -9l-1 -26l-112 18l-110 -12l-3 26l49 2l11 53v758l-42 43zM144 333v-188l39 -103l75 -24l75 44l42 98l-12 130l-69 83l-94 9l-85 -48z
" />
    <glyph glyph-name="ydieresis" unicode="&#xff;" horiz-adv-x="415" 
d="M11 0zM88 415l82 11l3 -20l-30 -5l-12 -34l96 -272l4 -39l97 294l-18 48l-28 3l7 25l66 -11l68 11l3 -23l-41 -14l-27 -43l-189 -514l-76 -54l-44 47l44 45l36 -33l25 15l48 124l-141 378l-22 38l-28 11l1 18zM76 558l51 63l56 -51l-45 -60zM264 562l52 59l54 -54
l-49 -53z" />
    <glyph glyph-name="Amacron" unicode="&#x100;" horiz-adv-x="618" 
d="M9 0zM9 23l41 5l38 53l215 602l33 12l114 -376l95 -243l50 -50l36 -5l-8 -23l-117 5l-95 -6l-10 29l31 -3l29 49l-64 180l12 18h-231l7 -16l-52 -164l14 -64l65 -9l5 -20l-108 11l-100 -11v26zM391 298l-95 248l3 53l-104 -294zM311 795l128 16l9 -64l-137 5l-136 -8
l-5 62z" />
    <glyph glyph-name="amacron" unicode="&#x101;" horiz-adv-x="382" 
d="M35 0zM249 276l-2 56l-23 42l-57 21l-54 -47l24 -34l-48 -40l-46 42l120 108l92 5l59 -88l-10 -249l43 -59l22 2l5 -20l-90 -20l-40 38l13 24l-52 -44l-75 -19l-87 45l-8 122l67 54l169 55zM98 176l-2 -92l51 -41l53 -4l49 38l-5 161zM193 572l128 16l9 -64l-137 5
l-136 -8l-5 62z" />
    <glyph glyph-name="Abreve" unicode="&#x102;" horiz-adv-x="618" 
d="M9 0zM9 23l41 5l38 53l215 602l33 12l114 -376l95 -243l50 -50l36 -5l-8 -23l-117 5l-95 -6l-10 29l31 -3l29 49l-64 180l12 18h-231l7 -16l-52 -164l14 -64l65 -9l5 -20l-108 11l-100 -11v26zM391 298l-95 248l3 53l-104 -294zM227 913l16 -80l51 -37l54 7l31 42l13 70
l23 -2l-10 -106l-46 -57l-62 -13l-67 40l-18 80l-10 52z" />
    <glyph glyph-name="abreve" unicode="&#x103;" horiz-adv-x="382" 
d="M35 0zM249 276l-2 56l-23 42l-57 21l-54 -47l24 -34l-48 -40l-46 42l120 108l92 5l59 -88l-10 -249l43 -59l22 2l5 -20l-90 -20l-40 38l13 24l-52 -44l-75 -19l-87 45l-8 122l67 54l169 55zM98 176l-2 -92l51 -41l53 -4l49 38l-5 161zM109 690l16 -80l51 -37l54 7l31 42
l13 70l23 -2l-10 -106l-46 -57l-62 -13l-67 40l-18 80l-10 52z" />
    <glyph glyph-name="Aogonek" unicode="&#x104;" horiz-adv-x="618" 
d="M521 2l-15 1l-95 -6l-10 29l31 -3l29 49l-64 180l12 18h-231l7 -16l-52 -164l14 -64l65 -9l5 -20l-108 11l-100 -11v26l41 5l38 53l215 602l33 12l114 -376l95 -243l50 -50l36 -5l-8 -23l-47 2l-74 -32l-51 -46l10 -80l79 -34l43 3l34 22l14 -16l-20 -29l-68 -34l-108 19
l-48 45l-4 79l76 85zM391 298l-95 248l3 53l-104 -294z" />
    <glyph glyph-name="aogonek" unicode="&#x105;" horiz-adv-x="382" 
d="M273 5l-29 28l13 24l-52 -44l-75 -19l-87 45l-8 122l67 54l169 55l-22 6l-2 56l-23 42l-57 21l-54 -47l24 -34l-48 -40l-46 42l120 108l92 5l59 -88l-10 -249l43 -59l22 2l5 -20l-60 -13l-69 -34l-51 -46l10 -80l79 -34l43 3l34 22l14 -16l-20 -29l-68 -34l-108 19
l-48 45l-4 79l75 85zM98 176l-2 -92l51 -41l53 -4l49 38l-5 161z" />
    <glyph glyph-name="Cacute" unicode="&#x106;" horiz-adv-x="618" 
d="M25 0zM583 531l9 -88l-27 3l-17 76l-35 74l-109 35l-144 -33l-98 -115l-32 -161l20 -148l99 -113l131 -51l97 16l89 94l28 83l20 -5l-49 -175l-100 -32l-132 -8l-161 56l-110 102l-37 164l31 157l88 125l143 60l181 7l109 -54zM496 857l-138 -131l-16 14l90 165z" />
    <glyph glyph-name="cacute" unicode="&#x107;" horiz-adv-x="368" 
d="M21 0zM358 374l-47 -43l-73 62h-73l-58 -65l-12 -108l45 -116l84 -56l75 6l53 36l13 -9l-39 -50l-99 -37l-108 19l-87 95l-11 148l88 133l129 43l81 -12zM351 634l-138 -131l-16 14l90 165z" />
    <glyph glyph-name="Ccircumflex" unicode="&#x108;" horiz-adv-x="618" 
d="M25 0zM583 531l9 -88l-27 3l-17 76l-35 74l-109 35l-144 -33l-98 -115l-32 -161l20 -148l99 -113l131 -51l97 16l89 94l28 83l20 -5l-49 -175l-100 -32l-132 -8l-161 56l-110 102l-37 164l31 157l88 125l143 60l181 7l109 -54zM260 751l100 155l104 -162l-22 -15l-79 79
l8 43l-90 -132l-34 18z" />
    <glyph glyph-name="ccircumflex" unicode="&#x109;" horiz-adv-x="368" 
d="M21 0zM358 374l-47 -43l-73 62h-73l-58 -65l-12 -108l45 -116l84 -56l75 6l53 36l13 -9l-39 -50l-99 -37l-108 19l-87 95l-11 148l88 133l129 43l81 -12zM126 528l100 155l104 -162l-22 -15l-79 79l8 43l-90 -132l-34 18z" />
    <glyph glyph-name="Cdotaccent" unicode="&#x10a;" horiz-adv-x="618" 
d="M25 0zM583 531l9 -88l-27 3l-17 76l-35 74l-109 35l-144 -33l-98 -115l-32 -161l20 -148l99 -113l131 -51l97 16l89 94l28 83l20 -5l-49 -175l-100 -32l-132 -8l-161 56l-110 102l-37 164l31 157l88 125l143 60l181 7l109 -54zM295 806l63 60l59 -65l-65 -60z" />
    <glyph glyph-name="cdotaccent" unicode="&#x10b;" horiz-adv-x="368" 
d="M21 0zM358 374l-47 -43l-73 62h-73l-58 -65l-12 -108l45 -116l84 -56l75 6l53 36l13 -9l-39 -50l-99 -37l-108 19l-87 95l-11 148l88 133l129 43l81 -12zM160 583l63 60l59 -65l-65 -60z" />
    <glyph glyph-name="Ccaron" unicode="&#x10c;" horiz-adv-x="618" 
d="M25 0zM583 531l9 -88l-27 3l-17 76l-35 74l-109 35l-144 -33l-98 -115l-32 -161l20 -148l99 -113l131 -51l97 16l89 94l28 83l20 -5l-49 -175l-100 -32l-132 -8l-161 56l-110 102l-37 164l31 157l88 125l143 60l181 7l109 -54zM451 893l-101 -155l-103 163l21 14l80 -83
l-8 -44l90 138l34 -19z" />
    <glyph glyph-name="ccaron" unicode="&#x10d;" horiz-adv-x="368" 
d="M21 0zM358 374l-47 -43l-73 62h-73l-58 -65l-12 -108l45 -116l84 -56l75 6l53 36l13 -9l-39 -50l-99 -37l-108 19l-87 95l-11 148l88 133l129 43l81 -12zM317 670l-101 -155l-103 163l21 14l80 -83l-8 -44l90 138l34 -19z" />
    <glyph glyph-name="Dcaron" unicode="&#x10e;" horiz-adv-x="715" 
d="M39 0zM150 636l92 15h101l149 -45l136 -109l49 -147l-22 -167l-113 -119l-130 -58l-133 -12l-110 9l-126 -12l-4 24l56 19l36 66v446l-36 70h-47l-1 24zM205 605v-461l17 -68l80 -59l124 17l90 72l49 109v155l-51 135l-115 80l-127 37l-89 -3zM433 893l-101 -155
l-103 163l21 14l80 -83l-8 -44l90 138l34 -19z" />
    <glyph glyph-name="dcaron" unicode="&#x10f;" horiz-adv-x="573" 
d="M26 0zM277 671l67 3l65 31l4 -18l-6 -29v-590l25 -38l26 13l8 -27l-48 -7l-82 -24l8 49l2 58l-37 -49l-94 -53l-84 16l-87 76l-18 168l74 130l122 52l48 2l88 -24l-27 28l10 172l-62 41zM124 351l-29 -136l39 -122l92 -45l81 22l51 60l-17 -1v158l-41 97l-86 19zM440 656
l74 52l52 -63l7 -58l-40 -57l-44 -11l-8 16l29 19l19 26v17l-14 14l-26 -21z" />
    <glyph glyph-name="Dcroat" unicode="&#x110;" horiz-adv-x="715" 
d="M39 0zM53 367l78 -11v190l-36 70h-47l-1 24l103 -4l92 15h101l149 -45l136 -109l49 -147l-22 -167l-113 -119l-130 -58l-133 -12l-110 9l-126 -12l-4 24l56 19l36 66v196h-83zM205 605v-258l161 13l-6 -82l-155 18v-152l17 -68l80 -59l124 17l90 72l49 109v155l-51 135
l-115 80l-127 37l-89 -3z" />
    <glyph glyph-name="dmacron" unicode="&#x111;" horiz-adv-x="459" 
d="M339 574l2 36l-62 41l-2 20l67 3l65 31l4 -18l-6 -29v-75l42 5l10 -64l-52 2v-458l25 -38l26 13l8 -27l-48 -7l-82 -24l8 49l2 58l-37 -49l-94 -53l-84 16l-87 76l-18 168l74 130l122 52l48 2l88 -24l-27 28l6 90l-152 -7l-4 62zM124 351l-29 -136l39 -122l92 -45l81 22
l51 60l-17 -1v158l-41 97l-86 19z" />
    <glyph glyph-name="Emacron" unicode="&#x112;" 
d="M31 0zM496 642l-17 -69l6 -77l-18 -2l-19 87l-74 36l-201 -8l34 -4v-259l142 5l56 38l14 55l23 -7l-15 -108l10 -100l-26 -2l-12 51l-61 33h-151l18 -21v-190l55 -67l79 -12l97 16l68 74l14 91l24 -9l-12 -93l-33 -100h-317l-149 -9l6 24l62 22l26 69v452l-37 61h-45
l1 23h452zM286 795l128 16l9 -64l-137 5l-136 -8l-5 62z" />
    <glyph glyph-name="emacron" unicode="&#x113;" horiz-adv-x="383" 
d="M17 0zM173 431l92 -7l71 -51l27 -121l-302 -31l36 -10l-4 -15l39 -88l95 -60l83 19l44 58l17 -22l-89 -90l-83 -21l-109 36l-73 131l25 150l73 95zM287 278l-17 94l-69 39l-57 -18l-36 -38l-12 -104zM193 572l128 16l9 -64l-137 5l-136 -8l-5 62z" />
    <glyph glyph-name="Ebreve" unicode="&#x114;" 
d="M31 0zM496 642l-17 -69l6 -77l-18 -2l-19 87l-74 36l-201 -8l34 -4v-259l142 5l56 38l14 55l23 -7l-15 -108l10 -100l-26 -2l-12 51l-61 33h-151l18 -21v-190l55 -67l79 -12l97 16l68 74l14 91l24 -9l-12 -93l-33 -100h-317l-149 -9l6 24l62 22l26 69v452l-37 61h-45
l1 23h452zM202 913l16 -80l51 -37l54 7l31 42l13 70l23 -2l-10 -106l-46 -57l-62 -13l-67 40l-18 80l-10 52z" />
    <glyph glyph-name="ebreve" unicode="&#x115;" horiz-adv-x="383" 
d="M17 0zM173 431l92 -7l71 -51l27 -121l-302 -31l36 -10l-4 -15l39 -88l95 -60l83 19l44 58l17 -22l-89 -90l-83 -21l-109 36l-73 131l25 150l73 95zM287 278l-17 94l-69 39l-57 -18l-36 -38l-12 -104zM110 690l16 -80l51 -37l54 7l31 42l13 70l23 -2l-10 -106l-46 -57
l-62 -13l-67 40l-18 80l-10 52z" />
    <glyph glyph-name="Edotaccent" unicode="&#x116;" 
d="M31 0zM496 642l-17 -69l6 -77l-18 -2l-19 87l-74 36l-201 -8l34 -4v-259l142 5l56 38l14 55l23 -7l-15 -108l10 -100l-26 -2l-12 51l-61 33h-151l18 -21v-190l55 -67l79 -12l97 16l68 74l14 91l24 -9l-12 -93l-33 -100h-317l-149 -9l6 24l62 22l26 69v452l-37 61h-45
l1 23h452zM223 806l63 60l59 -65l-65 -60z" />
    <glyph glyph-name="edotaccent" unicode="&#x117;" horiz-adv-x="383" 
d="M17 0zM173 431l92 -7l71 -51l27 -121l-302 -31l36 -10l-4 -15l39 -88l95 -60l83 19l44 58l17 -22l-89 -90l-83 -21l-109 36l-73 131l25 150l73 95zM287 278l-17 94l-69 39l-57 -18l-36 -38l-12 -104zM130 583l63 60l59 -65l-65 -60z" />
    <glyph glyph-name="Eogonek" unicode="&#x118;" 
d="M436 0h-256l-149 -9l6 24l62 22l26 69v452l-37 61h-45l1 23h452l-17 -69l6 -77l-18 -2l-19 87l-74 36l-201 -8l34 -4v-259l142 5l56 38l14 55l23 -7l-15 -108l10 -100l-26 -2l-12 51l-61 33h-151l18 -21v-190l55 -67l79 -12l97 16l68 74l14 91l24 -9l-12 -93l-33 -100
l-73 -32l-51 -46l10 -80l78 -34l44 3l34 22l13 -16l-20 -29l-68 -34l-108 19l-48 45l-4 79l76 85z" />
    <glyph glyph-name="eogonek" unicode="&#x119;" horiz-adv-x="383" 
d="M197 -7l-107 35l-73 131l25 150l73 95l58 27l92 -7l71 -51l27 -121l-302 -31l36 -10l-4 -15l39 -88l95 -60l83 19l44 58l17 -22l-82 -87l-66 -48l-51 -46l11 -80l78 -34l43 3l35 22l13 -16l-20 -29l-68 -34l-108 19l-48 45l-4 79l76 85zM287 278l-17 94l-69 39l-57 -18
l-36 -38l-12 -104z" />
    <glyph glyph-name="Ecaron" unicode="&#x11a;" 
d="M31 0zM496 642l-17 -69l6 -77l-18 -2l-19 87l-74 36l-201 -8l34 -4v-259l142 5l56 38l14 55l23 -7l-15 -108l10 -100l-26 -2l-12 51l-61 33h-151l18 -21v-190l55 -67l79 -12l97 16l68 74l14 91l24 -9l-12 -93l-33 -100h-317l-149 -9l6 24l62 22l26 69v452l-37 61h-45
l1 23h452zM379 893l-101 -155l-103 163l21 14l80 -83l-8 -44l90 138l34 -19z" />
    <glyph glyph-name="ecaron" unicode="&#x11b;" horiz-adv-x="383" 
d="M17 0zM173 431l92 -7l71 -51l27 -121l-302 -31l36 -10l-4 -15l39 -88l95 -60l83 19l44 58l17 -22l-89 -90l-83 -21l-109 36l-73 131l25 150l73 95zM287 278l-17 94l-69 39l-57 -18l-36 -38l-12 -104zM287 670l-101 -155l-103 163l21 14l80 -83l-8 -44l90 138l34 -19z" />
    <glyph glyph-name="Gcircumflex" unicode="&#x11c;" horiz-adv-x="667" 
d="M32 0zM545 558l-98 69h-130l-112 -58l-55 -108l-14 -150l17 -115l82 -106l118 -62l120 -13l40 31v112l-25 59l-60 15l9 30l101 -13l109 13l1 -20l-58 -36l5 -113l34 -47l-84 -39l-94 -15h-161l-140 61l-100 124l-18 205l75 149l144 105l187 18l173 -36l-17 -76l5 -93
l-19 3zM275 751l100 155l104 -162l-22 -15l-79 79l8 43l-90 -132l-34 18z" />
    <glyph glyph-name="gcircumflex" unicode="&#x11d;" horiz-adv-x="460" 
d="M29 0zM148 135l-48 -53l31 -56l253 -33l48 -83l-52 -88l-125 -41h-141l-68 21l-15 112l27 -3l45 -76l94 -36l107 22l53 111l-8 34l-277 21l-43 61l53 65l43 34l-54 49l-29 94l46 106l89 42l105 -6l44 -28l125 16l-3 -52l-103 8l28 -54l-10 -96l-52 -72l-106 -28zM270 167
l30 54v101l-60 88l-47 11l-55 -28l-31 -92l15 -84l48 -60l44 -8zM113 528l100 155l104 -162l-22 -15l-79 79l8 43l-90 -132l-34 18z" />
    <glyph glyph-name="Gbreve" unicode="&#x11e;" horiz-adv-x="667" 
d="M32 0zM545 558l-98 69h-130l-112 -58l-55 -108l-14 -150l17 -115l82 -106l118 -62l120 -13l40 31v112l-25 59l-60 15l9 30l101 -13l109 13l1 -20l-58 -36l5 -113l34 -47l-84 -39l-94 -15h-161l-140 61l-100 124l-18 205l75 149l144 105l187 18l173 -36l-17 -76l5 -93
l-19 3zM289 913l16 -80l51 -37l54 7l31 42l13 70l23 -2l-10 -106l-46 -57l-62 -13l-67 40l-18 80l-10 52z" />
    <glyph glyph-name="gbreve" unicode="&#x11f;" horiz-adv-x="460" 
d="M29 0zM148 135l-48 -53l31 -56l253 -33l48 -83l-52 -88l-125 -41h-141l-68 21l-15 112l27 -3l45 -76l94 -36l107 22l53 111l-8 34l-277 21l-43 61l53 65l43 34l-54 49l-29 94l46 106l89 42l105 -6l44 -28l125 16l-3 -52l-103 8l28 -54l-10 -96l-52 -72l-106 -28zM270 167
l30 54v101l-60 88l-47 11l-55 -28l-31 -92l15 -84l48 -60l44 -8zM119 690l16 -80l51 -37l54 7l31 42l13 70l23 -2l-10 -106l-46 -57l-62 -13l-67 40l-18 80l-10 52z" />
    <glyph glyph-name="Gdotaccent" unicode="&#x120;" horiz-adv-x="667" 
d="M32 0zM545 558l-98 69h-130l-112 -58l-55 -108l-14 -150l17 -115l82 -106l118 -62l120 -13l40 31v112l-25 59l-60 15l9 30l101 -13l109 13l1 -20l-58 -36l5 -113l34 -47l-84 -39l-94 -15h-161l-140 61l-100 124l-18 205l75 149l144 105l187 18l173 -36l-17 -76l5 -93
l-19 3zM310 806l63 60l59 -65l-65 -60z" />
    <glyph glyph-name="gdotaccent" unicode="&#x121;" horiz-adv-x="460" 
d="M29 0zM148 135l-48 -53l31 -56l253 -33l48 -83l-52 -88l-125 -41h-141l-68 21l-15 112l27 -3l45 -76l94 -36l107 22l53 111l-8 34l-277 21l-43 61l53 65l43 34l-54 49l-29 94l46 106l89 42l105 -6l44 -28l125 16l-3 -52l-103 8l28 -54l-10 -96l-52 -72l-106 -28zM270 167
l30 54v101l-60 88l-47 11l-55 -28l-31 -92l15 -84l48 -60l44 -8zM140 583l63 60l59 -65l-65 -60z" />
    <glyph glyph-name="Gcommaaccent" unicode="&#x122;" horiz-adv-x="667" 
d="M32 0zM545 558l-98 69h-130l-112 -58l-55 -108l-14 -150l17 -115l82 -106l118 -62l120 -13l40 31v112l-25 59l-60 15l9 30l101 -13l109 13l1 -20l-58 -36l5 -113l34 -47l-84 -39l-94 -15h-161l-140 61l-100 124l-18 205l75 149l144 105l187 18l173 -36l-17 -76l5 -93
l-19 3zM295 -109l74 52l52 -63l7 -58l-40 -57l-44 -11l-8 16l29 19l19 26v17l-14 14l-26 -21z" />
    <glyph glyph-name="gcommaaccent" unicode="&#x123;" horiz-adv-x="460" 
d="M29 0zM148 135l-48 -53l31 -56l253 -33l48 -83l-52 -88l-125 -41h-141l-68 21l-15 112l27 -3l45 -76l94 -36l107 22l53 111l-8 34l-277 21l-43 61l53 65l43 34l-54 49l-29 94l46 106l89 42l105 -6l44 -28l125 16l-3 -52l-103 8l28 -54l-10 -96l-52 -72l-106 -28zM270 167
l30 54v101l-60 88l-47 11l-55 -28l-31 -92l15 -84l48 -60l44 -8zM282.982 570.993l-73.9961 -51.9971l-51.9971 62.9961l-6.99902 57.9971l39.9971 56.9961l43.998 11l7.99902 -15.999l-28.998 -18.999l-18.999 -25.999v-16.998l13.999 -14l25.999 20.999z" />
    <glyph glyph-name="Hcircumflex" unicode="&#x124;" horiz-adv-x="765" 
d="M32 0zM155 637l139 13l10 -29l-47 -2l-45 -72l-8 -192h388l-35 18l-8 191l-30 52l-62 10l14 19l121 -16l132 16v-23l-39 -1l-43 -72l-9 -446l34 -61l55 -27l2 -17l-124 11l-136 -14l3 26l52 5l38 73v218h-374l24 -14l5 -143l12 -112l66 -38l12 -10l-270 -6l3 24l60 16
l30 58v443l-34 71l-47 8l-1 30zM287 751l100 155l104 -162l-22 -15l-79 79l8 43l-90 -132l-34 18z" />
    <glyph glyph-name="hcircumflex" unicode="&#x125;" horiz-adv-x="474" 
d="M20 0zM23 659l57 10l58 35l10 -15l-11 -317l134 65l103 -37l37 -89v-243l25 -50l16 -2l1 -16l-72 6l-95 -6l-4 18l32 5l30 39l-5 236l-55 82h-72l-96 -41l18 -5v-269l27 -37l30 -13l-3 -13l-84 8l-84 -7l3 14l36 16l12 45v523l-45 36zM33 751l100 155l104 -162l-22 -15
l-79 79l8 43l-90 -132l-34 18z" />
    <glyph glyph-name="Hbar" unicode="&#x126;" horiz-adv-x="765" 
d="M125 502v33l-34 71l-47 8l-1 30l112 -7l139 13l10 -29l-47 -2l-45 -72l-2 -48l184 -6l157 8l-2 63l-30 52l-62 10l14 19l121 -16l132 16v-23l-39 -1l-43 -72l-1 -43l56 3l8 -64l-66 1l-6 -343l34 -61l55 -27l2 -17l-124 11l-136 -14l3 26l52 5l38 73v218h-374l24 -14
l5 -143l12 -112l66 -38l12 -10l-270 -6l3 24l60 16l30 58v351h-48l-3 61zM554 447l-160 5l-186 -7l-4 -90h388l-35 18z" />
    <glyph glyph-name="hbar" unicode="&#x127;" horiz-adv-x="474" 
d="M71 577v24l-45 36l-3 22l57 10l58 35l10 -15l-4 -117l125 16l9 -64l-135 5l-6 -157l134 65l103 -37l37 -89v-243l25 -50l16 -2l1 -16l-72 6l-95 -6l-4 18l32 5l30 39l-5 236l-55 82h-72l-96 -41l18 -5v-269l27 -37l30 -13l-3 -13l-84 8l-84 -7l3 14l36 16l12 45v447
l-66 -4l-5 62z" />
    <glyph glyph-name="Itilde" unicode="&#x128;" horiz-adv-x="333" 
d="M0 0zM37 651l133 -27l133 21l6 -21l-58 -16l-44 -67v-456l33 -54l60 -16v-24l-142 22l-121 -16v26l73 23l11 44v487l-60 40l-32 4zM86 818l38 5l98 -36l55 2l41 45l18 -14l-84 -76l-49 -6l-111 42l-74 -43l-18 24z" />
    <glyph glyph-name="itilde" unicode="&#x129;" horiz-adv-x="304" 
d="M0 0zM64 382l68 22l59 33l17 -11l-16 -361l33 -39l26 -16l-3 -18l-85 13l-99 -5l5 24l38 4l25 48l-9 252l-34 40l-18 -6zM74 595l38 5l98 -36l55 2l41 45l18 -14l-84 -76l-49 -6l-111 42l-74 -43l-18 24z" />
    <glyph glyph-name="Imacron" unicode="&#x12a;" horiz-adv-x="333" 
d="M27 0zM37 651l133 -27l133 21l6 -21l-58 -16l-44 -67v-456l33 -54l60 -16v-24l-142 22l-121 -16v26l73 23l11 44v487l-60 40l-32 4zM168 795l128 16l9 -64l-137 5l-136 -8l-5 62z" />
    <glyph glyph-name="imacron" unicode="&#x12b;" horiz-adv-x="283" 
d="M4 0zM50 382l68 22l59 33l17 -11l-16 -361l33 -39l26 -16l-3 -18l-85 13l-99 -5l5 24l38 4l25 48l-9 252l-34 40l-18 -6zM145 572l128 16l9 -64l-137 5l-136 -8l-5 62z" />
    <glyph glyph-name="Ibreve" unicode="&#x12c;" horiz-adv-x="333" 
d="M29 0zM37 651l133 -27l133 21l6 -21l-58 -16l-44 -67v-456l33 -54l60 -16v-24l-142 22l-121 -16v26l73 23l11 44v487l-60 40l-32 4zM84 913l16 -80l51 -37l54 7l31 42l13 70l23 -2l-10 -106l-46 -57l-62 -13l-67 40l-18 80l-10 52z" />
    <glyph glyph-name="ibreve" unicode="&#x12d;" horiz-adv-x="226" 
d="M7 0zM21 382l68 22l59 33l17 -11l-16 -361l33 -39l26 -16l-3 -18l-85 13l-99 -5l5 24l38 4l25 48l-9 252l-34 40l-18 -6zM32 690l16 -80l51 -37l54 7l31 42l13 70l23 -2l-10 -106l-46 -57l-62 -13l-67 40l-18 80l-10 52z" />
    <glyph glyph-name="Iogonek" unicode="&#x12e;" horiz-adv-x="333" 
d="M164 12l-127 -15v26l73 23l11 44v487l-60 40l-32 4l8 30l133 -27l133 21l6 -21l-58 -16l-44 -67v-456l33 -54l60 -16v-24l-89 14l-76 -37l-51 -46l11 -80l78 -34l44 3l34 22l13 -16l-20 -29l-68 -34l-108 19l-48 45l-4 79l76 85z" />
    <glyph glyph-name="iogonek" unicode="&#x12f;" horiz-adv-x="226" 
d="M115 5l-94 -5l5 24l38 4l25 48l-9 252l-34 40l-18 -6l-7 20l68 22l59 33l17 -11l-16 -361l33 -39l26 -16l-3 -18l-44 7l-71 -31l-51 -46l10 -80l79 -34l43 3l34 22l13 -16l-19 -29l-69 -34l-107 19l-49 45l-3 79l75 85zM116 681l51 -67l-60 -50l-46 55z" />
    <glyph glyph-name="Idotaccent" unicode="&#x130;" horiz-adv-x="333" 
d="M29 0zM37 651l133 -27l133 21l6 -21l-58 -16l-44 -67v-456l33 -54l60 -16v-24l-142 22l-121 -16v26l73 23l11 44v487l-60 40l-32 4zM105 806l63 60l59 -65l-65 -60z" />
    <glyph glyph-name="dotlessi" unicode="&#x131;" horiz-adv-x="226" 
d="M21 382l68 22l59 33l17 -11l-16 -361l33 -39l26 -16l-3 -18l-85 13l-99 -5l5 24l38 4l25 48l-9 252l-34 40l-18 -6z" />
    <glyph glyph-name="IJ" unicode="&#x132;" horiz-adv-x="666" 
d="M29 0zM37 651l133 -27l133 21l6 -21l-58 -16l-44 -67v-456l33 -54l60 -16v-24l-142 22l-121 -16v26l73 23l11 44v487l-60 40l-32 4zM375 650l128 -15l130 10l7 -29h-39l-51 -58v-486l-39 -134l-134 -93l-73 -11l-6 30l85 18l66 100l20 96l-9 469l-36 62l-47 13z" />
    <glyph glyph-name="ij" unicode="&#x133;" horiz-adv-x="441" 
d="M21 0zM21 382l68 22l59 33l17 -11l-16 -361l33 -39l26 -16l-3 -18l-85 13l-99 -5l5 24l38 4l25 48l-9 252l-34 40l-18 -6zM116 681l51 -67l-60 -50l-46 55zM249 380l64 18l52 37l23 -15l-12 -412l-28 -124l-76 -65l-72 -27l-10 24l73 35l45 97l-11 377l-27 30l-19 1z
M282 624l60 54l48 -60l-51 -51z" />
    <glyph glyph-name="Jcircumflex" unicode="&#x134;" horiz-adv-x="333" 
d="M0 0zM42 650l128 -15l130 10l7 -29h-39l-51 -58v-486l-39 -134l-134 -93l-73 -11l-6 30l85 18l66 100l20 96l-9 469l-36 62l-47 13zM70 751l100 155l104 -162l-22 -15l-79 79l8 43l-90 -132l-34 18z" />
    <glyph glyph-name="jcircumflex" unicode="&#x135;" horiz-adv-x="215" 
d="M0 0zM23 380l64 18l52 37l23 -15l-12 -412l-28 -124l-76 -65l-72 -27l-10 24l73 35l45 97l-11 377l-27 30l-19 1zM8 528l100 155l104 -162l-22 -15l-79 79l8 43l-90 -132l-34 18z" />
    <glyph glyph-name="Kcommaaccent" unicode="&#x136;" horiz-adv-x="668" 
d="M42 0zM159 633l118 18l6 -27l-47 -12l-27 -43l5 -212l-25 -41l130 102l124 163l-17 40l-27 5l-4 16l101 -5l90 8l18 -21l-38 -6l-92 -53l-204 -229l37 12l189 -232l108 -88l55 -15l-2 -21l-102 5l-84 44l-98 106l-159 161l-4 -149l26 -108l70 -30v-27l-129 14l-135 -11
l2 18l52 11l35 58v446l-29 75l-51 16l-1 21zM295 -109l74 52l52 -63l7 -58l-40 -57l-44 -11l-8 16l29 19l19 26v17l-14 14l-26 -21z" />
    <glyph glyph-name="kcommaaccent" unicode="&#x137;" horiz-adv-x="417" 
d="M20 0zM29 661l56 8l49 34l13 -10l-15 -359l5 -114l104 135l-4 32l-17 2l-4 24l81 -4l105 16v-22l-41 -5l-87 -47l-88 -109l26 4l151 -187l49 -44h18l-1 -12l-63 -13l-76 47l-131 189l-43 -44l23 8l3 -137l21 -29l33 -6v-18l-90 9l-82 -11l-4 19l37 15l17 45v518l-30 43
l-11 2zM158 -109l74 52l52 -63l7 -58l-40 -57l-44 -11l-8 16l29 19l19 26v17l-14 14l-26 -21z" />
    <glyph glyph-name="Lacute" unicode="&#x139;" 
d="M32 0zM159 633l164 12l-7 -27l-62 -4l-49 -47v-494l31 -37h198l63 48l37 90l31 -6l-54 -176l-212 13l-262 -10l-1 26l41 2l45 50v496l-44 47h-46l2 34zM311 857l-138 -131l-16 14l90 165z" />
    <glyph glyph-name="lacute" unicode="&#x13a;" horiz-adv-x="210" 
d="M17 0zM39 664l53 10l45 29l21 -10l-19 -436l5 -193l27 -40l32 -6v-23l-91 13l-94 -8l-1 24l35 2l24 53v531l-32 28zM235 857l-138 -131l-16 14l90 165z" />
    <glyph glyph-name="Lcommaaccent" unicode="&#x13b;" 
d="M32 0zM159 633l164 12l-7 -27l-62 -4l-49 -47v-494l31 -37h198l63 48l37 90l31 -6l-54 -176l-212 13l-262 -10l-1 26l41 2l45 50v496l-44 47h-46l2 34zM234 -109l74 52l52 -63l7 -58l-40 -57l-44 -11l-8 16l29 19l19 26v17l-14 14l-26 -21z" />
    <glyph glyph-name="lcommaaccent" unicode="&#x13c;" horiz-adv-x="210" 
d="M17 0zM39 664l53 10l45 29l21 -10l-19 -436l5 -193l27 -40l32 -6v-23l-91 13l-94 -8l-1 24l35 2l24 53v531l-32 28zM38 -109l74 52l52 -63l7 -58l-40 -57l-44 -11l-8 16l29 19l19 26v17l-14 14l-26 -21z" />
    <glyph glyph-name="Lcaron" unicode="&#x13d;" 
d="M32 0zM159 633l164 12l-7 -27l-62 -4l-49 -47v-494l31 -37h198l63 48l37 90l31 -6l-54 -176l-212 13l-262 -10l-1 26l41 2l45 50v496l-44 47h-46l2 34zM347 656l74 52l52 -63l7 -58l-40 -57l-44 -11l-8 16l29 19l19 26v17l-14 14l-26 -21z" />
    <glyph glyph-name="lcaron" unicode="&#x13e;" horiz-adv-x="327" 
d="M17 0zM39 664l53 10l45 29l21 -10l-19 -436l5 -193l27 -40l32 -6v-23l-91 13l-94 -8l-1 24l35 2l24 53v531l-32 28zM194 656l74 52l52 -63l7 -58l-40 -57l-44 -11l-8 16l29 19l19 26v17l-14 14l-26 -21z" />
    <glyph glyph-name="Ldot" unicode="&#x13f;" 
d="M32 0zM159 633l164 12l-7 -27l-62 -4l-49 -47v-494l31 -37h198l63 48l37 90l31 -6l-54 -176l-212 13l-262 -10l-1 26l41 2l45 50v496l-44 47h-46l2 34zM251 347l63 60l59 -65l-65 -60z" />
    <glyph glyph-name="ldot" unicode="&#x140;" horiz-adv-x="261" 
d="M17 0zM39 664l53 10l45 29l21 -10l-19 -436l5 -193l27 -40l32 -6v-23l-91 13l-94 -8l-1 24l35 2l24 53v531l-32 28zM175 347l63 60l59 -65l-65 -60z" />
    <glyph glyph-name="Lslash" unicode="&#x141;" 
d="M122 347v222l-44 47h-46l2 34l125 -17l164 12l-7 -27l-62 -4l-45 -47v-183l104 55l12 -42l-120 -45v-279l31 -37h198l63 48l37 90l31 -6l-54 -176l-212 13l-262 -10l-1 26l41 2l46 50v244l-104 -47l-21 37z" />
    <glyph glyph-name="lslash" unicode="&#x142;" horiz-adv-x="212" 
d="M77 370v240l-32 28l-5 26l53 10l44 29l22 -10l-18 -302l91 36l7 -40l-99 -29v-101l5 -193l27 -40l32 -6v-23l-91 13l-94 -8l-1 24l35 2l28 53v253l-76 -44l-17 57z" />
    <glyph glyph-name="Nacute" unicode="&#x143;" horiz-adv-x="716" 
d="M0 0zM63 644l75 7l407 -475l30 -46l-9 411l-35 73l-74 13l2 24l125 -12l106 9l6 -22l-57 -10l-39 -68v-504l12 -78l-440 499l-24 67v-428l49 -63l49 -17l1 -27l-120 6l-130 -16l-2 21l73 22l46 85v419l-55 78l-68 7l-3 20zM487 857l-138 -131l-16 14l90 165z" />
    <glyph glyph-name="nacute" unicode="&#x144;" horiz-adv-x="468" 
d="M25 0zM27 378l66 20l50 39l12 -11l-9 -70l58 45l112 33l78 -45l18 -89v-244l30 -35l12 -6l1 -18l-78 9l-84 -11l-3 23l32 8l24 39v236l-44 76l-72 5l-114 -53l28 2v-269l26 -38l35 -7l-3 -12h-95l-77 -3l-5 15l28 11l25 47v253l-32 39l-11 -5zM364 634l-138 -131l-16 14
l90 165z" />
    <glyph glyph-name="Ncommaaccent" unicode="&#x145;" horiz-adv-x="716" 
d="M0 0zM63 644l75 7l407 -475l30 -46l-9 411l-35 73l-74 13l2 24l125 -12l106 9l6 -22l-57 -10l-39 -68v-504l12 -78l-440 499l-24 67v-428l49 -63l49 -17l1 -27l-120 6l-130 -16l-2 21l73 22l46 85v419l-55 78l-68 7l-3 20zM310 -109l74 52l52 -63l7 -58l-40 -57l-44 -11
l-8 16l29 19l19 26v17l-14 14l-26 -21z" />
    <glyph glyph-name="ncommaaccent" unicode="&#x146;" horiz-adv-x="468" 
d="M25 0zM27 378l66 20l50 39l12 -11l-9 -70l58 45l112 33l78 -45l18 -89v-244l30 -35l12 -6l1 -18l-78 9l-84 -11l-3 23l32 8l24 39v236l-44 76l-72 5l-114 -53l28 2v-269l26 -38l35 -7l-3 -12h-95l-77 -3l-5 15l28 11l25 47v253l-32 39l-11 -5zM159 -109l74 52l52 -63
l7 -58l-40 -57l-44 -11l-8 16l29 19l19 26v17l-14 14l-26 -21z" />
    <glyph glyph-name="Ncaron" unicode="&#x147;" horiz-adv-x="716" 
d="M0 0zM63 644l75 7l407 -475l30 -46l-9 411l-35 73l-74 13l2 24l125 -12l106 9l6 -22l-57 -10l-39 -68v-504l12 -78l-440 499l-24 67v-428l49 -63l49 -17l1 -27l-120 6l-130 -16l-2 21l73 22l46 85v419l-55 78l-68 7l-3 20zM453 893l-101 -155l-103 163l21 14l80 -83
l-8 -44l90 138l34 -19z" />
    <glyph glyph-name="ncaron" unicode="&#x148;" horiz-adv-x="468" 
d="M25 0zM27 378l66 20l50 39l12 -11l-9 -70l58 45l112 33l78 -45l18 -89v-244l30 -35l12 -6l1 -18l-78 9l-84 -11l-3 23l32 8l24 39v236l-44 76l-72 5l-114 -53l28 2v-269l26 -38l35 -7l-3 -12h-95l-77 -3l-5 15l28 11l25 47v253l-32 39l-11 -5zM329 670l-101 -155
l-103 163l21 14l80 -83l-8 -44l90 138l34 -19z" />
    <glyph glyph-name="Eng" unicode="&#x14a;" horiz-adv-x="716" 
d="M566 541l-35 73l-74 13l2 24l125 -12l106 9l6 -22l-57 -10l-39 -68v-504l-8 -85l-22 -75l-75 -65l-72 -27l-11 24l73 35l67 115l6 56l-386 443l-24 67v-428l49 -63l49 -17l1 -27l-120 6l-130 -16l-2 21l73 22l46 85v419l-55 78l-68 7l-3 20l75 5l75 7l407 -475l26 -40z
" />
    <glyph glyph-name="eng" unicode="&#x14b;" horiz-adv-x="458" 
d="M27 378l66 20l50 39l12 -11l-9 -70l58 45l112 33l78 -45l19 -88l4 -134l-11 -159l-29 -124l-75 -65l-72 -27l-11 24l73 35l46 97l13 219l-5 134l-44 76l-72 5l-114 -53l28 2v-269l26 -38l35 -7l-3 -12h-95l-77 -3l-5 15l28 11l25 47v253l-32 39l-11 -5z" />
    <glyph glyph-name="Omacron" unicode="&#x14c;" horiz-adv-x="717" 
d="M27 0zM97 553l157 92l184 6l156 -78l83 -162v-182l-71 -144l-141 -87l-142 -10l-143 45l-106 100l-47 189l8 65zM173 522l-42 -191l30 -155l95 -130l133 -25l133 64l55 131l5 171l-54 145l-67 76l-98 23l-95 -23zM360 795l128 16l9 -64l-137 5l-136 -8l-5 62z" />
    <glyph glyph-name="omacron" unicode="&#x14d;" horiz-adv-x="476" 
d="M19 0zM343 411l75 -55l39 -114l-20 -129l-72 -89l-119 -30l-122 21l-87 80l-18 126l53 146l113 57h111zM116 319l-19 -160l49 -105l80 -39l80 11l50 84l24 142l-34 105l-69 44l-87 -3zM239 572l128 16l9 -64l-137 5l-136 -8l-5 62z" />
    <glyph glyph-name="Obreve" unicode="&#x14e;" horiz-adv-x="717" 
d="M27 0zM97 553l157 92l184 6l156 -78l83 -162v-182l-71 -144l-141 -87l-142 -10l-143 45l-106 100l-47 189l8 65zM173 522l-42 -191l30 -155l95 -130l133 -25l133 64l55 131l5 171l-54 145l-67 76l-98 23l-95 -23zM276 913l16 -80l51 -37l54 7l31 42l13 70l23 -2l-10 -106
l-46 -57l-62 -13l-67 40l-18 80l-10 52z" />
    <glyph glyph-name="obreve" unicode="&#x14f;" horiz-adv-x="476" 
d="M19 0zM343 411l75 -55l39 -114l-20 -129l-72 -89l-119 -30l-122 21l-87 80l-18 126l53 146l113 57h111zM116 319l-19 -160l49 -105l80 -39l80 11l50 84l24 142l-34 105l-69 44l-87 -3zM156 690l16 -80l51 -37l54 7l31 42l13 70l23 -2l-10 -106l-46 -57l-62 -13l-67 40
l-18 80l-10 52z" />
    <glyph glyph-name="Ohungarumlaut" unicode="&#x150;" horiz-adv-x="717" 
d="M27 0zM97 553l157 92l184 6l156 -78l83 -162v-182l-71 -144l-141 -87l-142 -10l-143 45l-106 100l-47 189l8 65zM173 522l-42 -191l30 -155l95 -130l133 -25l133 64l55 131l5 171l-54 145l-67 76l-98 23l-95 -23zM394 860l-130 -124l-16 14l86 156zM557 860l-131 -124
l-15 14l85 156z" />
    <glyph glyph-name="ohungarumlaut" unicode="&#x151;" horiz-adv-x="476" 
d="M19 0zM343 411l75 -55l39 -114l-20 -129l-72 -89l-119 -30l-122 21l-87 80l-18 126l53 146l113 57h111zM116 319l-19 -160l49 -105l80 -39l80 11l50 84l24 142l-34 105l-69 44l-87 -3zM250 637l-130 -124l-16 14l86 156zM413 637l-131 -124l-15 14l85 156z" />
    <glyph glyph-name="OE" unicode="&#x152;" horiz-adv-x="863" 
d="M791 591v-79l-24 -5l-3 51l-81 54h-194l39 -12l-6 -250h110l62 27l23 63l22 4l-19 -116l12 -105l-19 4l-7 41l-57 45h-162l43 -16v-219l69 -57l107 3l90 63l19 95l29 -5l-37 -174h-312l-183 -5l-176 78l-94 163l14 228l108 129l173 49l325 -9l142 12zM358 624l-101 -28
l-114 -141l-7 -185l44 -142l129 -100l93 -7l49 41v556z" />
    <glyph glyph-name="oe" unicode="&#x153;" horiz-adv-x="730" 
d="M504 431l92 -7l71 -51l27 -121l-277 -24l11 -13l-5 -19l39 -88l97 -60l81 19l45 56l17 -23l-88 -87l-84 -21l-110 36l-34 63l-49 -70l-113 -30l-111 20l-81 83l-16 129l48 149l104 58h103l43 -15l70 -56l7 -25l54 70zM106 322l-18 -164l45 -107l74 -40l73 13l46 84
l22 145l-31 107l-63 46l-80 -3zM612 278l-18 94l-68 39l-51 -18l-30 -38l-11 -101z" />
    <glyph glyph-name="Racute" unicode="&#x154;" horiz-adv-x="631" 
d="M40 0zM150 639l113 9l105 -6l117 -81l4 -130l-53 -72l-78 -31l52 -18l55 -139l58 -126l99 -28l6 -26l-110 3l-91 54l-72 203l-49 46l-89 4l-3 -186l19 -61l79 -33l2 -23l-136 12l-138 -12l4 23l61 16l33 50v480l-40 45l-52 9l10 24zM217 614v-292l97 14l85 75v125l-79 83
l-81 12l-56 -10zM417 857l-138 -131l-16 14l90 165z" />
    <glyph glyph-name="racute" unicode="&#x155;" horiz-adv-x="306" 
d="M28 0zM31 380l48 13l58 39l11 -11l-7 -78l-13 -55l76 113l57 28l48 -54l-53 -53l-36 40l-55 -40l-21 -76v-173l28 -42l51 -14l1 -15l-108 8l-87 -12l-1 19l34 11l22 49l-7 252l-31 32h-14zM293 634l-138 -131l-16 14l90 165z" />
    <glyph glyph-name="Rcommaaccent" unicode="&#x156;" horiz-adv-x="631" 
d="M40 0zM150 639l113 9l105 -6l117 -81l4 -130l-53 -72l-78 -31l52 -18l55 -139l58 -126l99 -28l6 -26l-110 3l-91 54l-72 203l-49 46l-89 4l-3 -186l19 -61l79 -33l2 -23l-136 12l-138 -12l4 23l61 16l33 50v480l-40 45l-52 9l10 24zM217 614v-292l97 14l85 75v125l-79 83
l-81 12l-56 -10zM268 -109l74 52l52 -63l7 -58l-40 -57l-44 -11l-8 16l29 19l19 26v17l-14 14l-26 -21z" />
    <glyph glyph-name="rcommaaccent" unicode="&#x157;" horiz-adv-x="306" 
d="M28 0zM31 380l48 13l58 39l11 -11l-7 -78l-13 -55l76 113l57 28l48 -54l-53 -53l-36 40l-55 -40l-21 -76v-173l28 -42l51 -14l1 -15l-108 8l-87 -12l-1 19l34 11l22 49l-7 252l-31 32h-14zM48 -109l74 52l52 -63l7 -58l-40 -57l-44 -11l-8 16l29 19l19 26v17l-14 14
l-26 -21z" />
    <glyph glyph-name="Rcaron" unicode="&#x158;" horiz-adv-x="631" 
d="M40 0zM150 639l113 9l105 -6l117 -81l4 -130l-53 -72l-78 -31l52 -18l55 -139l58 -126l99 -28l6 -26l-110 3l-91 54l-72 203l-49 46l-89 4l-3 -186l19 -61l79 -33l2 -23l-136 12l-138 -12l4 23l61 16l33 50v480l-40 45l-52 9l10 24zM217 614v-292l97 14l85 75v125l-79 83
l-81 12l-56 -10zM382 893l-101 -155l-103 163l21 14l80 -83l-8 -44l90 138l34 -19z" />
    <glyph glyph-name="rcaron" unicode="&#x159;" horiz-adv-x="306" 
d="M28 0zM31 380l48 13l58 39l11 -11l-7 -78l-13 -55l76 113l57 28l48 -54l-53 -53l-36 40l-55 -40l-21 -76v-173l28 -42l51 -14l1 -15l-108 8l-87 -12l-1 19l34 11l22 49l-7 252l-31 32h-14zM257 670l-101 -155l-103 163l21 14l80 -83l-8 -44l90 138l34 -19z" />
    <glyph glyph-name="Sacute" unicode="&#x15a;" horiz-adv-x="476" 
d="M34 0zM121 596l96 61h111l90 -40l-9 -139h-17l-29 112l-76 41l-90 -14l-39 -103l37 -83l153 -106l86 -95l3 -117l-70 -87l-102 -41l-112 9l-94 42l-25 151l14 12l37 -99l85 -76l103 -3l78 69l-12 104l-232 188l-22 104zM396 857l-138 -131l-16 14l90 165z" />
    <glyph glyph-name="sacute" unicode="&#x15b;" horiz-adv-x="321" 
d="M26 0zM266 308l-17 3l-19 61l-55 37l-50 -13l-23 -53l22 -55l144 -109l18 -68l-37 -81l-83 -35l-92 10l-43 25l-5 106l17 -6l26 -73l61 -40l69 16l20 80l-42 56l-123 77l-17 85l40 69l73 30l42 -3l71 -27zM297 634l-138 -131l-16 14l90 165z" />
    <glyph glyph-name="Scircumflex" unicode="&#x15c;" horiz-adv-x="476" 
d="M34 0zM121 596l96 61h111l90 -40l-9 -139h-17l-29 112l-76 41l-90 -14l-39 -103l37 -83l153 -106l86 -95l3 -117l-70 -87l-102 -41l-112 9l-94 42l-25 151l14 12l37 -99l85 -76l103 -3l78 69l-12 104l-232 188l-22 104zM172 751l100 155l104 -162l-22 -15l-79 79l8 43
l-90 -132l-34 18z" />
    <glyph glyph-name="scircumflex" unicode="&#x15d;" horiz-adv-x="321" 
d="M26 0zM266 308l-17 3l-19 61l-55 37l-50 -13l-23 -53l22 -55l144 -109l18 -68l-37 -81l-83 -35l-92 10l-43 25l-5 106l17 -6l26 -73l61 -40l69 16l20 80l-42 56l-123 77l-17 85l40 69l73 30l42 -3l71 -27zM66 528l100 155l104 -162l-22 -15l-79 79l8 43l-90 -132l-34 18z
" />
    <glyph glyph-name="Scedilla" unicode="&#x15e;" horiz-adv-x="476" 
d="M121 596l96 61h111l90 -40l-9 -139h-17l-29 112l-76 41l-90 -14l-39 -103l37 -83l153 -106l86 -95l3 -117l-70 -87l-102 -41l-8 1l-20 -32l57 -83v-47l-67 -56l-58 -14l-45 38l37 45l56 -45l39 23l-73 93l14 30l45 49l-89 7l-94 42l-25 151l14 12l37 -99l85 -76l103 -3
l78 69l-12 104l-232 188l-22 104z" />
    <glyph glyph-name="scedilla" unicode="&#x15f;" horiz-adv-x="321" 
d="M266 308l-17 3l-19 61l-55 37l-50 -13l-23 -53l22 -55l144 -109l18 -68l-37 -81l-73 -30l-22 -23l-12 -23l57 -83v-47l-68 -56l-57 -14l-46 38l37 45l57 -45l39 23l-73 93l13 30l54 58l-81 9l-43 25l-5 106l17 -6l26 -73l61 -40l69 16l20 80l-42 56l-123 77l-17 85l40 69
l73 30l42 -3l71 -27z" />
    <glyph glyph-name="Scaron" unicode="&#x160;" horiz-adv-x="476" 
d="M34 0zM121 596l96 61h111l90 -40l-9 -139h-17l-29 112l-76 41l-90 -14l-39 -103l37 -83l153 -106l86 -95l3 -117l-70 -87l-102 -41l-112 9l-94 42l-25 151l14 12l37 -99l85 -76l103 -3l78 69l-12 104l-232 188l-22 104zM359 893l-101 -155l-103 163l21 14l80 -83l-8 -44
l90 138l34 -19z" />
    <glyph glyph-name="scaron" unicode="&#x161;" horiz-adv-x="321" 
d="M26 0zM266 308l-17 3l-19 61l-55 37l-50 -13l-23 -53l22 -55l144 -109l18 -68l-37 -81l-83 -35l-92 10l-43 25l-5 106l17 -6l26 -73l61 -40l69 16l20 80l-42 56l-123 77l-17 85l40 69l73 30l42 -3l71 -27zM256 670l-101 -155l-103 163l21 14l80 -83l-8 -44l90 138l34 -19
z" />
    <glyph glyph-name="Tcedilla" unicode="&#x162;" horiz-adv-x="571" 
d="M0 0zM58 639h467l32 37l12 -183l-20 -8l-16 63l-76 58l-135 3v-489l27 -74l92 -29v-20l-154 12l-159 -11l2 15l89 31l24 69v481l22 15h-103l-101 -19l-45 -102l-22 12l23 169zM211 -109l74 52l52 -63l7 -58l-40 -57l-44 -11l-8 16l29 19l19 26v17l-14 14l-26 -21z" />
    <glyph glyph-name="tcedilla" unicode="&#x163;" horiz-adv-x="231" 
d="M9 0zM146 413l68 -2l5 -49l-78 -5v-175l11 -114l25 -31l44 16l7 -19l-60 -44l-72 18l-20 71v272l21 10h-78l-10 16l125 126l18 -3zM60 -109l74 52l52 -63l7 -58l-40 -57l-44 -11l-8 16l29 19l19 26v17l-14 14l-26 -21z" />
    <glyph glyph-name="Tcaron" unicode="&#x164;" horiz-adv-x="571" 
d="M0 0zM58 639h467l32 37l12 -183l-20 -8l-16 63l-76 58l-135 3v-489l27 -74l92 -29v-20l-154 12l-159 -11l2 15l89 31l24 69v481l22 15h-103l-101 -19l-45 -102l-22 12l23 169zM380 893l-101 -155l-103 163l21 14l80 -83l-8 -44l90 138l34 -19z" />
    <glyph glyph-name="tcaron" unicode="&#x165;" horiz-adv-x="300" 
d="M9 0zM146 413l68 -2l5 -49l-78 -5v-175l11 -114l25 -31l44 16l7 -19l-60 -44l-72 18l-20 71v272l21 10h-78l-10 16l125 126l18 -3zM165 656l74 52l52 -63l7 -58l-40 -57l-44 -11l-8 16l29 19l19 26v17l-14 14l-26 -21z" />
    <glyph glyph-name="Tbar" unicode="&#x166;" horiz-adv-x="571" 
d="M148 447l95 -13v160l22 15h-103l-101 -19l-45 -102l-22 12l23 169l41 -30h467l32 37l12 -183l-20 -8l-16 63l-76 58l-135 3v-179l103 11l-4 -78l-99 14v-257l27 -74l92 -29v-20l-154 12l-159 -11l2 15l89 31l24 69v267h-97z" />
    <glyph glyph-name="tbar" unicode="&#x167;" horiz-adv-x="231" 
d="M17 270l59 -12v93l21 10h-78l-10 16l125 126l18 -3l-6 -87l68 -2l5 -49l-78 -5v-105l76 11l-3 -78l-73 15v-18l11 -114l25 -31l44 16l7 -19l-60 -44l-72 18l-20 71v123h-62z" />
    <glyph glyph-name="Utilde" unicode="&#x168;" horiz-adv-x="715" 
d="M27 0zM162 634l124 11l-2 -26l-49 -5l-38 -68v-395l76 -98l131 -14l110 29l53 99v372l-33 67l-55 20l6 16l110 -5l92 5l-1 -21l-36 -10l-33 -62v-282l-25 -151l-90 -106l-144 -25l-149 30l-95 116v417l-36 63l-47 8l-4 20zM294 818l38 5l98 -36l55 2l41 45l18 -14
l-84 -76l-49 -6l-111 42l-74 -43l-18 24z" />
    <glyph glyph-name="utilde" unicode="&#x169;" horiz-adv-x="473" 
d="M14 0zM14 420l65 -7l65 13v-306l51 -76h75l76 49l-18 11v251l-25 34l-37 6l-4 23l69 -5l81 13l-8 -197v-168l24 -22l29 5l-3 -23l-60 -4l-63 -26l-3 73l-72 -49l-88 -18l-84 46l-13 167v142l-28 35l-24 8zM152 595l38 5l98 -36l55 2l41 45l18 -14l-84 -76l-49 -6l-111 42
l-74 -43l-18 24z" />
    <glyph glyph-name="Umacron" unicode="&#x16a;" horiz-adv-x="715" 
d="M27 0zM162 634l124 11l-2 -26l-49 -5l-38 -68v-395l76 -98l131 -14l110 29l53 99v372l-33 67l-55 20l6 16l110 -5l92 5l-1 -21l-36 -10l-33 -62v-282l-25 -151l-90 -106l-144 -25l-149 30l-95 116v417l-36 63l-47 8l-4 20zM387 795l128 16l9 -64l-137 5l-136 -8l-5 62z
" />
    <glyph glyph-name="umacron" unicode="&#x16b;" horiz-adv-x="473" 
d="M14 0zM14 420l65 -7l65 13v-306l51 -76h75l76 49l-18 11v251l-25 34l-37 6l-4 23l69 -5l81 13l-8 -197v-168l24 -22l29 5l-3 -23l-60 -4l-63 -26l-3 73l-72 -49l-88 -18l-84 46l-13 167v142l-28 35l-24 8zM238 572l128 16l9 -64l-137 5l-136 -8l-5 62z" />
    <glyph glyph-name="Ubreve" unicode="&#x16c;" horiz-adv-x="715" 
d="M27 0zM162 634l124 11l-2 -26l-49 -5l-38 -68v-395l76 -98l131 -14l110 29l53 99v372l-33 67l-55 20l6 16l110 -5l92 5l-1 -21l-36 -10l-33 -62v-282l-25 -151l-90 -106l-144 -25l-149 30l-95 116v417l-36 63l-47 8l-4 20zM301 913l16 -80l51 -37l54 7l31 42l13 70l23 -2
l-10 -106l-46 -57l-62 -13l-67 40l-18 80l-10 52z" />
    <glyph glyph-name="ubreve" unicode="&#x16d;" horiz-adv-x="473" 
d="M14 0zM14 420l65 -7l65 13v-306l51 -76h75l76 49l-18 11v251l-25 34l-37 6l-4 23l69 -5l81 13l-8 -197v-168l24 -22l29 5l-3 -23l-60 -4l-63 -26l-3 73l-72 -49l-88 -18l-84 46l-13 167v142l-28 35l-24 8zM154 690l16 -80l51 -37l54 7l31 42l13 70l23 -2l-10 -106
l-46 -57l-62 -13l-67 40l-18 80l-10 52z" />
    <glyph glyph-name="Uring" unicode="&#x16e;" horiz-adv-x="715" 
d="M27 0zM162 634l124 11l-2 -26l-49 -5l-38 -68v-395l76 -98l131 -14l110 29l53 99v372l-33 67l-55 20l6 16l110 -5l92 5l-1 -21l-36 -10l-33 -62v-282l-25 -151l-90 -106l-144 -25l-149 30l-95 116v417l-36 63l-47 8l-4 20zM405 923l54 -45l11 -78l-32 -64l-95 -10l-61 57
v80l43 47zM315 852l-3 -57l46 -44l57 19l25 72l-38 47l-51 -2z" />
    <glyph glyph-name="uring" unicode="&#x16f;" horiz-adv-x="473" 
d="M14 0zM14 420l65 -7l65 13v-306l51 -76h75l76 49l-18 11v251l-25 34l-37 6l-4 23l69 -5l81 13l-8 -197v-168l24 -22l29 5l-3 -23l-60 -4l-63 -26l-3 73l-72 -49l-88 -18l-84 46l-13 167v142l-28 35l-24 8zM263 700l54 -45l11 -78l-32 -64l-95 -10l-61 57v80l43 47z
M173 629l-3 -57l46 -44l57 19l25 72l-38 47l-51 -2z" />
    <glyph glyph-name="Uhungarumlaut" unicode="&#x170;" horiz-adv-x="715" 
d="M27 0zM162 634l124 11l-2 -26l-49 -5l-38 -68v-395l76 -98l131 -14l110 29l53 99v372l-33 67l-55 20l6 16l110 -5l92 5l-1 -21l-36 -10l-33 -62v-282l-25 -151l-90 -106l-144 -25l-149 30l-95 116v417l-36 63l-47 8l-4 20zM403 860l-130 -124l-16 14l86 156zM566 860
l-131 -124l-15 14l85 156z" />
    <glyph glyph-name="uhungarumlaut" unicode="&#x171;" horiz-adv-x="473" 
d="M14 0zM14 420l65 -7l65 13v-306l51 -76h75l76 49l-18 11v251l-25 34l-37 6l-4 23l69 -5l81 13l-8 -197v-168l24 -22l29 5l-3 -23l-60 -4l-63 -26l-3 73l-72 -49l-88 -18l-84 46l-13 167v142l-28 35l-24 8zM243 637l-130 -124l-16 14l86 156zM406 637l-131 -124l-15 14
l85 156z" />
    <glyph glyph-name="Uogonek" unicode="&#x172;" horiz-adv-x="715" 
d="M358 -15l-149 30l-95 116v417l-36 63l-47 8l-4 20l135 -5l124 11l-2 -26l-49 -5l-38 -68v-395l76 -98l131 -14l110 29l53 99v372l-33 67l-55 20l6 16l110 -5l92 5l-1 -21l-36 -10l-33 -62v-282l-25 -151l-90 -106l-102 -42l-51 -46l10 -80l79 -34l43 3l34 22l14 -16
l-20 -29l-68 -34l-108 19l-48 45l-4 79z" />
    <glyph glyph-name="uogonek" unicode="&#x173;" horiz-adv-x="473" 
d="M331 -5l-3 69l-72 -49l-88 -18l-84 46l-13 167v142l-28 35l-24 8l-5 25l65 -7l65 13v-306l51 -76h75l76 49l-18 11v251l-25 34l-37 6l-4 23l69 -5l81 13l-8 -197v-168l24 -22l29 5l-3 -23l-21 -2l-77 -38l-47 -59l11 -80l78 -34l44 3l34 22l13 -16l-20 -29l-68 -34
l-108 19l-48 45l-4 79l46 61z" />
    <glyph glyph-name="Wcircumflex" unicode="&#x174;" horiz-adv-x="863" 
d="M10 0zM113 633l116 12l2 -23l-42 -6l-31 -53l105 -389l3 -58l147 430l30 96l22 3l138 -486l-3 -39l137 443l-21 51l-49 12l2 16l92 -7l99 9l4 -23l-36 -7l-49 -53l-196 -591l-146 495l-6 60l-192 -561l-178 632l-51 23l1 25zM355 751l100 155l104 -162l-22 -15l-79 79
l8 43l-90 -132l-34 18z" />
    <glyph glyph-name="wcircumflex" unicode="&#x175;" horiz-adv-x="655" 
d="M8 0zM105 413l76 13v-23l-34 -3l-15 -32l87 -250l-2 -43l124 342l18 -4l89 -300v-46l115 290l-14 41l-28 6l9 19l66 -12l57 12l4 -17l-26 -5l-37 -39l-163 -392l-93 291v44l-136 -336l-111 295l-47 129l-36 8l1 15zM251 528l100 155l104 -162l-22 -15l-79 79l8 43
l-90 -132l-34 18z" />
    <glyph glyph-name="Ycircumflex" unicode="&#x176;" 
d="M34 0zM130 629l103 15l2 -20l-31 -8l-14 -33l107 -247l-8 -33l21 23l118 241l-23 57l-37 2v16l92 -7l95 9v-20l-25 -3l-66 -56l-145 -271v-183l29 -68l59 -22v-21l-132 9l-110 -12l4 29l35 7l38 54v183l-154 326l-54 22l3 22zM201 751l100 155l104 -162l-22 -15l-79 79
l8 43l-90 -132l-34 18z" />
    <glyph glyph-name="ycircumflex" unicode="&#x177;" horiz-adv-x="415" 
d="M11 0zM88 415l82 11l3 -20l-30 -5l-12 -34l96 -272l4 -39l97 294l-18 48l-28 3l7 25l66 -11l68 11l3 -23l-41 -14l-27 -43l-189 -514l-76 -54l-44 47l44 45l36 -33l25 15l48 124l-141 378l-22 38l-28 11l1 18zM129 528l100 155l104 -162l-22 -15l-79 79l8 43l-90 -132
l-34 18z" />
    <glyph glyph-name="Ydieresis" unicode="&#x178;" 
d="M34 0zM130 629l103 15l2 -20l-31 -8l-14 -33l107 -247l-8 -33l21 23l118 241l-23 57l-37 2v16l92 -7l95 9v-20l-25 -3l-66 -56l-145 -271v-183l29 -68l59 -22v-21l-132 9l-110 -12l4 29l35 7l38 54v183l-154 326l-54 22l3 22zM145 781l51 63l56 -51l-45 -60zM333 785
l52 59l54 -54l-49 -53z" />
    <glyph glyph-name="Zacute" unicode="&#x179;" horiz-adv-x="621" 
d="M28 0zM328 631l247 6l-388 -587l-23 -11l279 5l95 55l48 101h25l-44 -194h-431l-108 -12l408 591l25 15h-255l-84 -58l-32 -88l-12 8l18 174zM459 857l-138 -131l-16 14l90 165z" />
    <glyph glyph-name="zacute" unicode="&#x17a;" horiz-adv-x="384" 
d="M2 0zM189 410l175 6l-236 -372l-35 -20l184 13l59 35l27 75l19 -2l-36 -139h-224l-120 -12l244 383l40 14l-182 -7l-43 -29l-18 -65l-14 2l10 118h150zM330 634l-138 -131l-16 14l90 165z" />
    <glyph glyph-name="Zdotaccent" unicode="&#x17b;" horiz-adv-x="621" 
d="M28 0zM328 631l247 6l-388 -587l-23 -11l279 5l95 55l48 101h25l-44 -194h-431l-108 -12l408 591l25 15h-255l-84 -58l-32 -88l-12 8l18 174zM268 806l63 60l59 -65l-65 -60z" />
    <glyph glyph-name="zdotaccent" unicode="&#x17c;" horiz-adv-x="384" 
d="M2 0zM189 410l175 6l-236 -372l-35 -20l184 13l59 35l27 75l19 -2l-36 -139h-224l-120 -12l244 383l40 14l-182 -7l-43 -29l-18 -65l-14 2l10 118h150zM138 583l63 60l59 -65l-65 -60z" />
    <glyph glyph-name="Zcaron" unicode="&#x17d;" horiz-adv-x="621" 
d="M28 0zM328 631l247 6l-388 -587l-23 -11l279 5l95 55l48 101h25l-44 -194h-431l-108 -12l408 591l25 15h-255l-84 -58l-32 -88l-12 8l18 174zM435 893l-101 -155l-103 163l21 14l80 -83l-8 -44l90 138l34 -19z" />
    <glyph glyph-name="zcaron" unicode="&#x17e;" horiz-adv-x="384" 
d="M2 0zM189 410l175 6l-236 -372l-35 -20l184 13l59 35l27 75l19 -2l-36 -139h-224l-120 -12l244 383l40 14l-182 -7l-43 -29l-18 -65l-14 2l10 118h150zM299 670l-101 -155l-103 163l21 14l80 -83l-8 -44l90 138l34 -19z" />
    <glyph glyph-name="florin" unicode="&#x192;" horiz-adv-x="476" 
d="M44 -46l55 -65l51 58l47 351l-90 2l8 26h57l34 44l67 227l135 97l74 -25l27 -43l-47 -44l-70 68l-47 -20l-70 -294l125 -5l-15 -34h-139l27 -10l-63 -326l-119 -124h-51l-52 59z" />
    <glyph glyph-name="Scommaaccent" unicode="&#x218;" horiz-adv-x="476" 
d="M34 0zM121 596l96 61h111l90 -40l-9 -139h-17l-29 112l-76 41l-90 -14l-39 -103l37 -83l153 -106l86 -95l3 -117l-70 -87l-102 -41l-112 9l-94 42l-25 151l14 12l37 -99l85 -76l103 -3l78 69l-12 104l-232 188l-22 104zM171 -109l74 52l52 -63l7 -58l-40 -57l-44 -11
l-8 16l29 19l19 26v17l-14 14l-26 -21z" />
    <glyph glyph-name="scommaaccent" unicode="&#x219;" horiz-adv-x="321" 
d="M26 0zM266 308l-17 3l-19 61l-55 37l-50 -13l-23 -53l22 -55l144 -109l18 -68l-37 -81l-83 -35l-92 10l-43 25l-5 106l17 -6l26 -73l61 -40l69 16l20 80l-42 56l-123 77l-17 85l40 69l73 30l42 -3l71 -27zM84 -109l74 52l52 -63l7 -58l-40 -57l-44 -11l-8 16l29 19l19 26
v17l-14 14l-26 -21z" />
    <glyph glyph-name="uni021A" unicode="&#x21a;" horiz-adv-x="571" 
d="M0 0zM58 639h467l32 37l12 -183l-20 -8l-16 63l-76 58l-135 3v-489l27 -74l92 -29v-20l-154 12l-159 -11l2 15l89 31l24 69v481l22 15h-103l-101 -19l-45 -102l-22 12l23 169zM211 -109l74 52l52 -63l7 -58l-40 -57l-44 -11l-8 16l29 19l19 26v17l-14 14l-26 -21z" />
    <glyph glyph-name="uni021B" unicode="&#x21b;" horiz-adv-x="231" 
d="M9 0zM146 413l68 -2l5 -49l-78 -5v-175l11 -114l25 -31l44 16l7 -19l-60 -44l-72 18l-20 71v272l21 10h-78l-10 16l125 126l18 -3zM60 -109l74 52l52 -63l7 -58l-40 -57l-44 -11l-8 16l29 19l19 26v17l-14 14l-26 -21z" />
    <glyph glyph-name="dotlessj" unicode="&#x237;" horiz-adv-x="215" 
d="M23 380l64 18l52 37l23 -15l-12 -412l-28 -124l-76 -65l-72 -27l-10 24l73 35l45 97l-11 377l-27 30l-19 1z" />
    <glyph glyph-name="circumflex" unicode="&#x2c6;" horiz-adv-x="273" 
d="M40 528l100 155l104 -162l-22 -15l-79 79l8 43l-90 -132l-34 18z" />
    <glyph glyph-name="caron" unicode="&#x2c7;" horiz-adv-x="273" 
d="M231 670l-101 -155l-103 163l21 14l80 -83l-8 -44l90 138l34 -19z" />
    <glyph glyph-name="breve" unicode="&#x2d8;" horiz-adv-x="270" 
d="M52 690l16 -80l51 -37l54 7l31 42l13 70l23 -2l-10 -106l-46 -57l-62 -13l-67 40l-18 80l-10 52z" />
    <glyph glyph-name="dotaccent" unicode="&#x2d9;" horiz-adv-x="179" 
d="M27 583l63 60l59 -65l-65 -60z" />
    <glyph glyph-name="ring" unicode="&#x2da;" horiz-adv-x="244" 
d="M150 700l54 -45l11 -78l-32 -64l-95 -10l-61 57v80l43 47zM60 629l-3 -57l46 -44l57 19l25 72l-38 47l-51 -2z" />
    <glyph glyph-name="ogonek" unicode="&#x2db;" horiz-adv-x="285" 
d="M193 11l26 -11l-73 -32l-51 -46l10 -80l78 -34l44 3l34 22l13 -16l-20 -29l-68 -34l-108 19l-48 45l-4 79l76 85z" />
    <glyph glyph-name="tilde" unicode="&#x2dc;" horiz-adv-x="392" 
d="M113 595l38 5l98 -36l55 2l41 45l18 -14l-84 -76l-49 -6l-111 42l-74 -43l-18 24z" />
    <glyph glyph-name="hungarumlaut" unicode="&#x2dd;" horiz-adv-x="365" 
d="M173 637l-130 -124l-16 14l86 156zM336 637l-131 -124l-15 14l85 156z" />
    <glyph glyph-name="uni0326" unicode="&#x326;" horiz-adv-x="0" 
d="M-296 -109l74 52l52 -63l7 -58l-40 -57l-44 -11l-8 16l29 19l19 26v17l-14 14l-26 -21z" />
    <glyph glyph-name="Delta" unicode="&#x394;" horiz-adv-x="591" 
d="M512 124l47 -118l-57 4l-470 -10l257 657l8 44zM89 30h230h143l-167 476l-12 63l-176 -476z" />
    <glyph glyph-name="Omega" unicode="&#x3a9;" horiz-adv-x="720" 
d="M124 553l143 92l168 6l142 -78l76 -162l-18 -155l-55 -102l-91 -75l48 -5l88 25l48 101h25l-44 -194h-227l-5 55l47 38l64 94l33 194l-49 145l-61 76l-89 23l-87 -23l-87 -86l-35 -173l19 -156l64 -94l47 -38l-5 -55h-227l-44 194h25l48 -101l88 -25l48 5l-91 75l-55 102
l-12 92z" />
    <glyph glyph-name="mu" unicode="&#x3bc;" horiz-adv-x="473" 
d="M152 392l-59 -238l12 -82l84 -30l65 57l66 293l69 -5l-63 -311l37 -37l51 37l27 78l19 -17l-34 -107l-77 -42l-57 33l-13 68l-41 -71l-70 -26l-72 31l-28 67l-22 -224l-49 -54l-40 72l54 160l66 295l2 52z" />
    <glyph glyph-name="pi" unicode="&#x3c0;" horiz-adv-x="533" 
d="M24 406l121 -13l274 9l66 11l3 -60l-76 4v-175l11 -114l25 -31l44 16l7 -19l-60 -44l-72 18l-20 71v272l21 10h-206l-13 -296l33 -39l26 -16l-3 -18l-85 13l-99 -5l5 24l38 4l25 48l-9 252l-34 40l-26 4z" />
    <glyph glyph-name="Wgrave" unicode="&#x1e80;" horiz-adv-x="863" 
d="M10 0zM113 633l116 12l2 -23l-42 -6l-31 -53l105 -389l3 -58l147 430l30 96l22 3l138 -486l-3 -39l137 443l-21 51l-49 12l2 16l92 -7l99 9l4 -23l-36 -7l-49 -53l-196 -591l-146 495l-6 60l-192 -561l-178 632l-51 23l1 25zM394 910l92 -172l-26 -9l-127 141z" />
    <glyph glyph-name="wgrave" unicode="&#x1e81;" horiz-adv-x="655" 
d="M8 0zM105 413l76 13v-23l-34 -3l-15 -32l87 -250l-2 -43l124 342l18 -4l89 -300v-46l115 290l-14 41l-28 6l9 19l66 -12l57 12l4 -17l-26 -5l-37 -39l-163 -392l-93 291v44l-136 -336l-111 295l-47 129l-36 8l1 15zM290 687l92 -172l-26 -9l-127 141z" />
    <glyph glyph-name="Wacute" unicode="&#x1e82;" horiz-adv-x="863" 
d="M10 0zM113 633l116 12l2 -23l-42 -6l-31 -53l105 -389l3 -58l147 430l30 96l22 3l138 -486l-3 -39l137 443l-21 51l-49 12l2 16l92 -7l99 9l4 -23l-36 -7l-49 -53l-196 -591l-146 495l-6 60l-192 -561l-178 632l-51 23l1 25zM580 857l-138 -131l-16 14l90 165z" />
    <glyph glyph-name="wacute" unicode="&#x1e83;" horiz-adv-x="655" 
d="M8 0zM105 413l76 13v-23l-34 -3l-15 -32l87 -250l-2 -43l124 342l18 -4l89 -300v-46l115 290l-14 41l-28 6l9 19l66 -12l57 12l4 -17l-26 -5l-37 -39l-163 -392l-93 291v44l-136 -336l-111 295l-47 129l-36 8l1 15zM476 634l-138 -131l-16 14l90 165z" />
    <glyph glyph-name="Wdieresis" unicode="&#x1e84;" horiz-adv-x="863" 
d="M10 0zM113 633l116 12l2 -23l-42 -6l-31 -53l105 -389l3 -58l147 430l30 96l22 3l138 -486l-3 -39l137 443l-21 51l-49 12l2 16l92 -7l99 9l4 -23l-36 -7l-49 -53l-196 -591l-146 495l-6 60l-192 -561l-178 632l-51 23l1 25zM303 781l51 63l56 -51l-45 -60zM491 785
l52 59l54 -54l-49 -53z" />
    <glyph glyph-name="wdieresis" unicode="&#x1e85;" horiz-adv-x="655" 
d="M8 0zM105 413l76 13v-23l-34 -3l-15 -32l87 -250l-2 -43l124 342l18 -4l89 -300v-46l115 290l-14 41l-28 6l9 19l66 -12l57 12l4 -17l-26 -5l-37 -39l-163 -392l-93 291v44l-136 -336l-111 295l-47 129l-36 8l1 15zM199 558l51 63l56 -51l-45 -60zM387 562l52 59l54 -54
l-49 -53z" />
    <glyph glyph-name="Ygrave" unicode="&#x1ef2;" 
d="M34 0zM130 629l103 15l2 -20l-31 -8l-14 -33l107 -247l-8 -33l21 23l118 241l-23 57l-37 2v16l92 -7l95 9v-20l-25 -3l-66 -56l-145 -271v-183l29 -68l59 -22v-21l-132 9l-110 -12l4 29l35 7l38 54v183l-154 326l-54 22l3 22zM244 910l92 -172l-26 -9l-127 141z" />
    <glyph glyph-name="ygrave" unicode="&#x1ef3;" horiz-adv-x="415" 
d="M11 0zM88 415l82 11l3 -20l-30 -5l-12 -34l96 -272l4 -39l97 294l-18 48l-28 3l7 25l66 -11l68 11l3 -23l-41 -14l-27 -43l-189 -514l-76 -54l-44 47l44 45l36 -33l25 15l48 124l-141 378l-22 38l-28 11l1 18zM168 687l92 -172l-26 -9l-127 141z" />
    <glyph glyph-name="endash" unicode="&#x2013;" horiz-adv-x="432" 
d="M215 239l199 10l9 -49h-196l-230 -7v61z" />
    <glyph glyph-name="emdash" unicode="&#x2014;" horiz-adv-x="863" 
d="M847 252l7 -56l-377 9l-477 -18l3 65h844z" />
    <glyph glyph-name="quoteleft" unicode="&#x2018;" horiz-adv-x="193" 
d="M136 389l-71 24l-49 99l45 116l72 34l53 -3l-3 -15l-64 -8l-56 -64l14 -69l32 -28l25 13l39 -50z" />
    <glyph glyph-name="quoteright" unicode="&#x2019;" horiz-adv-x="193" 
d="M16 618l68 61l69 -57l25 -117l-51 -81l-99 -33l-5 16l87 36l20 89l-35 48l-30 -5z" />
    <glyph glyph-name="quotesinglbase" unicode="&#x201a;" horiz-adv-x="193" 
d="M11 51l47 53l94 -51l23 -107l-38 -74l-63 -37l-59 -9l2 26h54l60 59l-1 71l-40 41l-27 -13z" />
    <glyph glyph-name="quotedblleft" unicode="&#x201c;" horiz-adv-x="381" 
d="M357 642l-63 -13l-41 -52l7 -58l51 -55l22 24l37 -53l-39 -48l-65 14l-59 84l5 98l75 64l77 10zM117 629l-48 -35l3 -87l38 -38l26 16l36 -47l-40 -54l-85 40l-32 100l32 87l70 41l56 7l5 -19z" />
    <glyph glyph-name="quotedblright" unicode="&#x201d;" horiz-adv-x="381" 
d="M200 617l49 61l102 -69l12 -106l-43 -79l-74 -31l-47 2l3 23l38 -3l86 63l-47 110l-32 -11zM23 619l49 51l75 -43l33 -96l-33 -94l-69 -37l-52 -8l-5 28l35 -7l84 62l-26 100l-30 8l-21 -8z" />
    <glyph glyph-name="quotedblbase" unicode="&#x201e;" horiz-adv-x="381" 
d="M16 46l56 60l93 -70l16 -82l-40 -83l-72 -42l-46 -3v19l51 8l56 68l-6 70l-37 24l-18 -7zM200 46l53 60l100 -80l12 -80l-49 -93l-78 -25l-28 5l-1 20l51 2l62 80l-8 52l-39 34l-29 -6z" />
    <glyph glyph-name="dagger" unicode="&#x2020;" horiz-adv-x="478" 
d="M53 464l173 -21l-22 207h92l-38 -207l171 24l-6 -93l-167 33l31 -535h-119l52 532l-167 -8v68z" />
    <glyph glyph-name="daggerdbl" unicode="&#x2021;" horiz-adv-x="478" 
d="M53 485l167 -42l-16 197l105 17l-46 -219l153 26l2 -66l-158 12v-286l161 6l-9 -71l-158 23l16 -205l-73 -6l26 221l-169 -20l11 66l159 -12v287l-171 -20v92z" />
    <glyph glyph-name="bullet" unicode="&#x2022;" horiz-adv-x="508" 
d="M306 478l69 -86l8 -95l-72 -86l-106 -4l-68 60l-5 129l85 79z" />
    <glyph glyph-name="ellipsis" unicode="&#x2026;" horiz-adv-x="863" 
d="M367 46l71 62l57 -67l-61 -58zM655 46l64 69l54 -69l-53 -56zM88 39l59 67l50 -60l-53 -63z" />
    <glyph glyph-name="perthousand" unicode="&#x2030;" horiz-adv-x="1072" 
d="M275 627l64 -116l-2 -122l-45 -81l-56 -41l2 7l-88 6l-89 77l-24 103l26 123l70 56l60 12zM633 357l78 -90l8 -126l-31 -108l-74 -41l-106 18l-70 105v137l40 98l83 18zM504 261l-7 -121l24 -94l44 -34l61 24l31 113l-14 126l-22 64l-71 -8zM600 626l-205 -315l-190 -355
l-52 42l210 318l192 349zM169 622l-33 -55v-129l23 -125l39 -19l53 43l9 120l-9 131l-51 40zM945 357l78 -90l8 -126l-31 -108l-74 -41l-106 18l-71 105v137l41 98l82 18zM816 261l-7 -121l24 -94l43 -34l61 24l32 113l-14 126l-23 64l-70 -8z" />
    <glyph glyph-name="guilsinglleft" unicode="&#x2039;" horiz-adv-x="239" 
d="M215 375l-60 -98l-83 -62l74 -43l71 -111l-19 -19l-189 171l184 169z" />
    <glyph glyph-name="guilsinglright" unicode="&#x203a;" horiz-adv-x="239" 
d="M42 382l182 -174l-184 -162l-21 16l65 101l64 53l-63 52l-66 97z" />
    <glyph glyph-name="fraction" unicode="&#x2044;" horiz-adv-x="213" 
d="M327 626l-205 -315l-190 -355l-52 42l210 318l192 349z" />
    <glyph glyph-name="Euro" unicode="&#x20ac;" horiz-adv-x="644" 
d="M80 416l10 46l88 125l144 60l180 7l68 -34l-18 -35l-4 11l-110 35l-144 -33l-98 -115l-15 -74l36 2h246l-29 -57l-216 10l-47 -4l-7 -38l12 -89l56 -3l142 6l-24 -48l-117 4l-51 -2l2 -16l99 -113l131 -51l97 16l64 67l41 -12l-16 -58l-101 -32l-132 -8l-161 56l-110 102
l-11 46l-76 -2l20 54h45l-15 66l9 47l-57 -3l17 70z" />
    <glyph glyph-name="uni20B9" unicode="&#x20b9;" horiz-adv-x="582" 
d="M351 477v59l-49 52h-131l-145 -8l20 78l222 -19l241 8l-9 -61h-110l37 -25l2 -83h80l-9 -61h-78l-34 -58l-78 -31l52 -18l55 -139l58 -126l99 -28l6 -26l-110 3l-91 54l-78 208l-43 41l-142 4v21l150 14l73 52l11 31h-179l-131 -7l17 77l116 -12h178z" />
    <glyph glyph-name="trademark" unicode="&#x2122;" horiz-adv-x="709" 
d="M375 647l32 4l55 -169l2 -31l67 200l21 -7l46 1v-16l-16 4l-10 -17l-7 -173l12 -25l29 3v-18l-53 10l-54 -12l-2 19l29 -2l14 31v172l-75 -215l-18 1l-66 209v-159l6 -34l33 -2l6 -17h-100v14h21l21 20v165l-8 26l-21 6l-8 17zM193 647l99 5l12 -75l-19 -2l-5 39l-33 19
l-42 2l12 -16v-177l10 -24l24 2l-4 -20l-47 11l-50 -4l-2 14l21 -5l14 22l-6 193l-27 2l-19 -16l-12 -44l-19 4l15 74z" />
    <glyph glyph-name="partialdiff" unicode="&#x2202;" horiz-adv-x="478" 
d="M373 339l-44 33l-82 -11l-80 -86l-45 -95l-18 -102l17 -48l41 -18l71 14l73 87l43 107l19 111zM248 668l93 -69l73 -120l17 -162l-35 -135l-81 -132l-96 -56h-91l-78 62l8 116l61 141l86 82l102 18l60 -43l-7 43l-56 159l-64 78z" />
    <glyph glyph-name="product" unicode="&#x220f;" horiz-adv-x="591" 
d="M559 689l-9 -61h-34l8 -839l-61 2l7 837l-295 6l-59 -7l8 -843l-59 -6l5 846l-47 -3l3 79l144 -13z" />
    <glyph glyph-name="summation" unicode="&#x2211;" horiz-adv-x="501" 
d="M216 -110l-201 -17l228 389l-228 390l201 -17l209 10l39 -167l-23 -4l-17 48l-71 45h-226l-33 14l223 -319l-223 -318l33 14h226l71 45l17 48l23 -4l-39 -167z" />
    <glyph glyph-name="minus" unicode="&#x2212;" horiz-adv-x="400" 
d="M368 303l-9 -61l-175 2l-145 -9l3 79l144 -13z" />
    <glyph glyph-name="radical" unicode="&#x221a;" horiz-adv-x="500" 
d="M124 264l-100 -4l6 69l158 -7l43 -262l169 596h67l-206 -655l-65 2z" />
    <glyph glyph-name="infinity" unicode="&#x221e;" horiz-adv-x="604" 
d="M255 415l39 -46l50 66l81 35l90 -22l46 -82l10 -90l-35 -83l-75 -30l-74 15l-44 40l-40 46l-49 -66l-81 -35l-90 23l-46 82l-10 90l35 82l75 30l75 -14zM313 289l20 -23l73 -26l72 -8l52 32l24 45l-16 65l-35 35h-63l-69 -35zM285 343l-20 25l-72 25l-73 8l-52 -32
l-24 -45l16 -65l36 -33l63 -2l69 35z" />
    <glyph glyph-name="integral" unicode="&#x222b;" horiz-adv-x="289" 
d="M279 753v-26l-66 -9l-41 -83l-3 -796l-72 -62l-83 -3v22l62 5l43 71l3 796l76 74z" />
    <glyph glyph-name="approxequal" unicode="&#x2248;" horiz-adv-x="392" 
d="M19 119zM118 226l41 6l104 -47l59 3l43 59l19 -19l-89 -100l-53 -7l-117 55l-79 -57l-19 32zM110 415l41 6l104 -47l59 3l43 59l19 -19l-89 -100l-53 -7l-117 55l-79 -57l-19 32z" />
    <glyph glyph-name="notequal" unicode="&#x2260;" horiz-adv-x="575" 
d="M203 210l83 128l-200 -16v73l224 -13l123 222l45 -39l-123 -182l131 4l3 -64l-167 13l-72 -129l56 -4l173 15l11 -61l-182 9l-81 -2l-112 -208l-52 42l109 165l-89 -3l5 58z" />
    <glyph glyph-name="lessequal" unicode="&#x2264;" horiz-adv-x="460" 
d="M52 0zM383 468l-291 -177l290 -182l-6 -64l-279 203l-35 18l2 65l194 112l125 99v-74zM381 30l-9 -61l-175 2l-145 -9l3 79l144 -13z" />
    <glyph glyph-name="greaterequal" unicode="&#x2265;" horiz-adv-x="460" 
d="M65 0zM239 412l147 -96l7 -50l-138 -84l-186 -129l7 63l187 123l94 54l-54 30l-233 144v70zM394 35l-9 -61l-175 2l-145 -9l3 79l144 -13z" />
    <glyph glyph-name="lozenge" unicode="&#x25ca;" horiz-adv-x="517" 
d="M11 322l123 166l96 147l50 7l84 -138l135 -189l-203 -279l-18 -35l-65 2l-112 194zM253 31l180 286l-126 195l-54 94l-30 -54l-144 -233h-1z" />
    <glyph glyph-name=".null" horiz-adv-x="0" 
 />
    <glyph glyph-name="nonmarkingreturn" horiz-adv-x="292" 
 />
    <glyph glyph-name=".ttfautohint" horiz-adv-x="292" 
d="M0 0z" />
    </font>
</defs>
</svg>
